<svg width="135" height="36" viewBox="0 0 135 36" fill="none" xmlns="http://www.w3.org/2000/svg">
<path fill-rule="evenodd" clip-rule="evenodd" d="M29.7769 30.5439C29.7769 27.8016 31.9999 25.5786 34.7421 25.5786H53.4916C56.2338 25.5786 58.4568 27.8016 58.4568 30.5439C58.4568 33.2861 56.2338 35.5091 53.4916 35.5091H34.7421C31.9999 35.5091 29.7769 33.2861 29.7769 30.5439Z" fill="#FFF0F0"/>
<path fill-rule="evenodd" clip-rule="evenodd" d="M75.9355 30.5395C75.9355 27.7972 78.1586 25.5742 80.9008 25.5742H99.6503C102.392 25.5742 104.615 27.7972 104.615 30.5395C104.615 33.2817 102.392 35.5047 99.6503 35.5047H80.9008C78.1586 35.5047 75.9355 33.2817 75.9355 30.5395Z" fill="#FFF0F0"/>
<path d="M31.0954 25.5785H36.1108C39.9408 25.5785 41.8557 26.916 41.8557 29.5908C41.8557 31.445 41.1718 32.904 39.804 33.9679C38.4362 35.0014 36.5516 35.5181 34.1503 35.5181H28.3142C25.7001 35.5181 23.9219 34.4998 22.9796 32.4633C20.6999 34.4998 18.4962 35.5181 16.3684 35.5181H11.1707C7.82705 35.5181 5.12178 34.3327 3.05483 31.9617C1.01828 29.5604 0 26.4296 0 22.5693C0 16.7332 2.00616 11.5202 6.01847 6.93036C10.0612 2.31012 14.6206 0 19.6968 0C23.5875 0 26.4296 1.35264 28.223 4.05791C29.7428 1.77819 31.7338 0.638325 34.1959 0.638325C35.5333 0.638325 36.6428 1.06387 37.5243 1.91497C38.4362 2.76607 38.8921 3.81474 38.8921 5.06099C38.8921 5.91209 38.6489 6.93036 38.1626 8.11582L37.6611 9.34687L31.0954 25.5785ZM14.5446 25.8065H15.6845C18.177 25.8065 19.8336 24.7882 20.6543 22.7517L23.8459 14.8638C24.2715 13.8303 24.4842 12.964 24.4842 12.2649C24.4842 11.4442 24.0739 10.7299 23.2532 10.122C22.4629 9.51405 21.5054 9.21009 20.3807 9.21009C18.1618 9.21009 16.0037 10.5019 13.9063 13.0856C11.809 15.6693 10.7603 18.3442 10.7603 21.1102C10.7603 24.2411 12.0217 25.8065 14.5446 25.8065Z" fill="#FFF0F0"/>
<path d="M75.7325 25.5785H81.0215C83.1188 25.5785 84.6082 25.8977 85.4897 26.536C86.3712 27.1439 86.812 28.1622 86.812 29.5908C86.812 31.445 86.128 32.904 84.7602 33.9679C83.4228 35.0014 81.5382 35.5181 79.1065 35.5181H70.9451C68.3918 35.5181 66.6896 34.5302 65.8385 32.5545C64.1667 34.5302 62.0693 35.5181 59.5465 35.5181H52.8897C50.2148 35.5181 47.9958 34.6822 46.2329 33.0104C44.4699 31.3386 43.5884 29.2261 43.5884 26.6728C43.5884 25.2138 43.9835 23.5116 44.7738 21.5662L50.9747 6.33763C52.7073 2.11255 55.0782 0 58.0874 0C59.3945 0 60.5039 0.425549 61.4158 1.27665C62.3277 2.09735 62.7837 3.11562 62.7837 4.33148C62.7837 5.24337 62.5405 6.29204 62.0541 7.4775L61.5526 8.70855L56.7652 20.4263L56.2636 21.7942C55.9901 22.5845 55.8381 23.1772 55.8077 23.5724C55.7469 24.9402 56.6284 25.6241 58.4522 25.6241C62.2213 25.6241 64.729 24.1043 65.9753 21.0647L71.6746 7.02155C73.3768 2.76607 75.7781 0.638325 78.8785 0.638325C80.1552 0.638325 81.2494 1.06387 82.1613 1.91497C83.0732 2.76607 83.5292 3.78434 83.5292 4.9698C83.5292 5.91209 83.134 7.37111 82.3437 9.34687L75.7325 25.5785Z" fill="#FFF0F0"/>
<path d="M109.609 0C114.016 0 117.634 1.39823 120.46 4.19469C123.318 6.99115 124.746 10.5475 124.746 14.8638C124.746 18.1162 124.002 21.3534 122.512 24.5754C121.023 27.7671 119.093 30.3203 116.722 32.2353C115.141 33.4816 113.5 34.3479 111.797 34.8342C110.126 35.2901 107.77 35.5181 104.73 35.5181C99.7757 35.5181 96.4321 34.9254 94.6995 33.7399C90.6264 30.9435 88.5898 26.8096 88.5898 21.3382C88.5898 15.5629 90.672 10.5627 94.8363 6.33763C99.0006 2.11255 103.925 0 109.609 0ZM108.515 9.71163C106.265 9.71163 104.214 10.8211 102.359 13.04C100.505 15.259 99.5781 17.7059 99.5781 20.3807C99.5781 23.9067 101.554 25.6697 105.505 25.6697C107.816 25.6697 109.594 24.9554 110.84 23.5268C112.907 21.1862 113.94 18.5114 113.94 15.5021C113.94 13.7695 113.439 12.3713 112.436 11.3074C111.433 10.2436 110.126 9.71163 108.515 9.71163Z" fill="#FFF0F0"/>
<path fill-rule="evenodd" clip-rule="evenodd" d="M105.834 4.97256C105.834 2.23034 108.057 0.00732422 110.8 0.00732422H129.549C132.291 0.00732422 134.514 2.23034 134.514 4.97256C134.514 7.71479 132.291 9.9378 129.549 9.9378H110.8C108.057 9.9378 105.834 7.71479 105.834 4.97256Z" fill="#FFF0F0"/>
</svg>
