<svg width="440" height="117" viewBox="0 0 440 117" fill="none" xmlns="http://www.w3.org/2000/svg">
<path fill-rule="evenodd" clip-rule="evenodd" d="M97.3983 99.9068C97.3983 90.9371 104.67 83.6658 113.639 83.6658H174.968C183.938 83.6658 191.209 90.9371 191.209 99.9068C191.209 108.877 183.938 116.148 174.968 116.148H113.639C104.67 116.148 97.3983 108.877 97.3983 99.9068Z" fill="#2B2B2B"/>
<path fill-rule="evenodd" clip-rule="evenodd" d="M248.382 99.8924C248.382 90.9227 255.654 83.6514 264.623 83.6514H325.952C334.922 83.6514 342.193 90.9227 342.193 99.8924C342.193 108.862 334.922 116.133 325.952 116.133H264.623C255.654 116.133 248.382 108.862 248.382 99.8924Z" fill="#2B2B2B"/>
<path d="M101.712 83.666H118.117C130.644 83.666 136.908 88.0407 136.908 96.7901C136.908 102.855 134.671 107.627 130.197 111.107C125.723 114.488 119.558 116.178 111.704 116.178H92.6143C84.0637 116.178 78.2474 112.847 75.1652 106.186C67.7083 112.847 60.5 116.178 53.5403 116.178H36.5386C25.6019 116.178 16.7531 112.3 9.9922 104.545C3.33073 96.6907 0 86.4499 0 73.823C0 54.7334 6.56204 37.682 19.6861 22.6689C32.9096 7.55629 47.8233 0 64.4273 0C77.1537 0 86.4499 4.42441 92.316 13.2732C97.2872 5.81635 103.8 2.08793 111.853 2.08793C116.228 2.08793 119.857 3.47988 122.74 6.26377C125.723 9.04767 127.214 12.4778 127.214 16.5542C127.214 19.3381 126.419 22.6689 124.828 26.5464L123.187 30.5731L101.712 83.666ZM47.5748 84.4117H51.3032C59.4561 84.4117 64.8747 81.081 67.5592 74.4195L77.9988 48.6188C79.3907 45.2383 80.0867 42.4047 80.0867 40.1179C80.0867 37.4335 78.7445 35.097 76.06 33.1085C73.475 31.12 70.3431 30.1257 66.6644 30.1257C59.4064 30.1257 52.3472 34.3513 45.4869 42.8024C38.6266 51.2535 35.1964 60.0029 35.1964 69.0506C35.1964 79.2913 39.3225 84.4117 47.5748 84.4117Z" fill="#2B2B2B"/>
<path d="M247.717 83.666H265.017C271.877 83.666 276.749 84.71 279.632 86.7979C282.516 88.7864 283.957 92.1171 283.957 96.7901C283.957 102.855 281.72 107.627 277.246 111.107C272.872 114.488 266.707 116.178 258.753 116.178H232.058C223.706 116.178 218.138 112.947 215.354 106.484C209.886 112.947 203.026 116.178 194.773 116.178H172.999C164.25 116.178 156.992 113.444 151.225 107.975C145.459 102.507 142.575 95.597 142.575 87.2453C142.575 82.4729 143.868 76.9051 146.453 70.5419L166.736 20.7301C172.403 6.91003 180.158 0 190.001 0C194.276 0 197.905 1.39195 200.888 4.17584C203.871 6.86031 205.362 10.191 205.362 14.168C205.362 17.1508 204.567 20.581 202.976 24.4585L201.335 28.4852L185.676 66.8135L184.035 71.2876C183.141 73.8727 182.643 75.8115 182.544 77.104C182.345 81.5781 185.229 83.8151 191.194 83.8151C203.523 83.8151 211.725 78.8439 215.802 68.9015L234.444 22.9671C240.012 9.04766 247.866 2.08793 258.008 2.08793C262.183 2.08793 265.763 3.47988 268.745 6.26377C271.728 9.04767 273.22 12.3784 273.22 16.256C273.22 19.3381 271.927 24.1105 269.342 30.5731L247.717 83.666Z" fill="#2B2B2B"/>
<path d="M358.526 0C372.943 0 384.774 4.57354 394.021 13.7206C403.367 22.8677 408.04 34.5004 408.04 48.6188C408.04 59.2572 405.604 69.846 400.732 80.385C395.86 90.8246 389.547 99.1763 381.791 105.44C376.621 109.516 371.252 112.35 365.685 113.941C360.216 115.432 352.511 116.178 342.568 116.178C326.362 116.178 315.425 114.239 309.758 110.362C296.435 101.215 289.774 87.6927 289.774 69.7963C289.774 50.9055 296.584 34.5501 310.206 20.7301C323.827 6.91003 339.934 0 358.526 0ZM354.947 31.7662C347.589 31.7662 340.878 35.3953 334.813 42.6533C328.748 49.9113 325.716 57.915 325.716 66.6644C325.716 78.1977 332.178 83.9643 345.104 83.9643C352.66 83.9643 358.476 81.6278 362.553 76.9549C369.314 69.2991 372.694 60.5497 372.694 50.7067C372.694 45.0395 371.054 40.4659 367.773 36.986C364.492 33.5062 360.216 31.7662 354.947 31.7662Z" fill="#2B2B2B"/>
<path fill-rule="evenodd" clip-rule="evenodd" d="M346.179 16.2645C346.179 7.2948 353.451 0.0234375 362.42 0.0234375H423.749C432.719 0.0234375 439.99 7.2948 439.99 16.2645C439.99 25.2342 432.719 32.5055 423.749 32.5055H362.42C353.451 32.5055 346.179 25.2342 346.179 16.2645Z" fill="#2B2B2B"/>
</svg>
