<svg width="647" height="423" viewBox="0 0 647 423" fill="none" xmlns="http://www.w3.org/2000/svg">
<g filter="url(#filter0_d_319_305)">
<path d="M37.2783 42.0527L441.158 9.88235L458.486 213.234L54.6066 245.404L37.2783 42.0527Z" fill="#2B2B2B"/>
<path d="M37.2783 42.0527L441.158 9.88235L443.319 35.2366L39.4388 67.407L37.2783 42.0527Z" fill="#232323"/>
<path d="M50.2855 194.696L454.165 162.525L458.486 213.234L54.6066 245.404L50.2855 194.696Z" fill="#232323"/>
<path d="M67.2233 52.1702C67.7347 58.1714 63.1197 63.4369 56.9155 63.9311C50.7113 64.4253 45.2672 59.961 44.7558 53.9598C44.2444 47.9586 48.8594 42.6931 55.0636 42.1989C61.2678 41.7047 66.7119 46.169 67.2233 52.1702Z" fill="#EF1A2D"/>
<path d="M77.2634 207.915C77.6408 212.344 74.2346 216.231 69.6553 216.595C65.0759 216.96 61.0577 213.665 60.6803 209.236C60.3028 204.806 63.7091 200.92 68.2884 200.555C72.8677 200.19 76.8859 203.485 77.2634 207.915Z" fill="#EF1A2D"/>
<path d="M128.618 203.824C128.995 208.254 125.589 212.14 121.009 212.505C116.43 212.87 112.412 209.575 112.034 205.145C111.657 200.716 115.063 196.829 119.643 196.464C124.222 196.1 128.24 199.395 128.618 203.824Z" fill="#EF1A2D"/>
<path d="M74.3156 46.9168C74.1939 45.4879 75.2927 44.2342 76.7699 44.1166L137.753 39.259C139.23 39.1414 140.526 40.2043 140.648 41.6332C140.77 43.062 139.671 44.3157 138.194 44.4334L77.2108 49.2909C75.7336 49.4086 74.4374 48.3456 74.3156 46.9168Z" fill="#EF1A2D"/>
<path d="M74.3156 46.9168C74.1939 45.4879 75.2927 44.2342 76.7699 44.1166L137.753 39.259C139.23 39.1414 140.526 40.2043 140.648 41.6332C140.77 43.062 139.671 44.3157 138.194 44.4334L77.2108 49.2909C75.7336 49.4086 74.4374 48.3456 74.3156 46.9168Z" fill="#EF1A2D"/>
<path d="M74.3156 46.9168C74.1939 45.4879 75.2927 44.2342 76.7699 44.1166L137.753 39.259C139.23 39.1414 140.526 40.2043 140.648 41.6332C140.77 43.062 139.671 44.3157 138.194 44.4334L77.2108 49.2909C75.7336 49.4086 74.4374 48.3456 74.3156 46.9168Z" fill="#EF1A2D"/>
<path d="M75.0652 55.7132C74.9434 54.2843 76.0422 53.0306 77.5194 52.9129L128.874 48.8224C130.351 48.7047 131.647 49.7677 131.769 51.1965C131.891 52.6254 130.792 53.8791 129.315 53.9967L77.9604 58.0873C76.4832 58.2049 75.1869 57.142 75.0652 55.7132Z" fill="#E7DADA"/>
<path d="M82.0558 207.273C81.934 205.844 83.0328 204.59 84.51 204.472L98.4185 203.364C99.8957 203.247 101.192 204.31 101.314 205.739C101.435 207.167 100.337 208.421 98.8594 208.539L84.951 209.647C83.4738 209.764 82.1776 208.701 82.0558 207.273Z" fill="#E7DADA"/>
<path d="M139.294 202.713C139.173 201.284 140.271 200.031 141.749 199.913L161.006 198.379C162.484 198.261 163.78 199.324 163.902 200.753C164.023 202.182 162.925 203.436 161.447 203.553L142.19 205.087C140.712 205.205 139.416 204.142 139.294 202.713Z" fill="#E7DADA"/>
<path d="M64.1207 224.329C63.999 222.901 65.0978 221.647 66.575 221.529L396.633 195.239C398.11 195.121 399.406 196.184 399.528 197.613C399.65 199.042 398.551 200.296 397.074 200.413L67.0159 226.704C65.5387 226.821 64.2425 225.758 64.1207 224.329Z" fill="#E7DADA"/>
<path d="M64.9585 234.161C64.8367 232.732 65.9355 231.478 67.4127 231.361L310.81 211.973C312.288 211.855 313.584 212.918 313.706 214.347C313.827 215.776 312.729 217.03 311.251 217.147L67.8536 236.535C66.3765 236.653 65.0802 235.59 64.9585 234.161Z" fill="#E7DADA"/>
<path d="M153.487 40.6105C153.365 39.1817 154.464 37.928 155.941 37.8103L207.295 33.7198C208.772 33.6021 210.069 34.665 210.19 36.0939C210.312 37.5227 209.213 38.7764 207.736 38.8941L156.382 42.9846C154.905 43.1023 153.608 42.0394 153.487 40.6105Z" fill="#E7DADA"/>
<path d="M415.469 24.4313C415.347 23.0024 416.446 21.7487 417.923 21.631L435.042 20.2675C436.519 20.1499 437.815 21.2128 437.937 22.6416C438.058 24.0705 436.96 25.3242 435.482 25.4419L418.364 26.8054C416.887 26.923 415.591 25.8601 415.469 24.4313Z" fill="#E7DADA"/>
</g>
<g filter="url(#filter1_d_319_305)">
<path d="M229.298 136.608L632.925 171.619L614.067 374.843L210.44 339.832L229.298 136.608Z" fill="#2B2B2B"/>
<path d="M229.298 136.608L632.925 171.619L630.573 196.957L226.947 161.947L229.298 136.608Z" fill="#232323"/>
<path d="M215.142 289.156L618.769 324.166L614.067 374.843L210.44 339.832L215.142 289.156Z" fill="#232323"/>
<path d="M257.015 151.523C256.458 157.52 250.981 161.946 244.781 161.408C238.58 160.871 234.005 155.573 234.561 149.575C235.118 143.578 240.596 139.152 246.796 139.69C252.996 140.228 257.571 145.525 257.015 151.523Z" fill="#EF1A2D"/>
<path d="M239.388 306.636C238.977 311.063 234.934 314.33 230.358 313.933C225.781 313.536 222.404 309.625 222.815 305.199C223.226 300.772 227.269 297.505 231.845 297.902C236.422 298.299 239.799 302.209 239.388 306.636Z" fill="#EF1A2D"/>
<path d="M290.71 311.088C290.299 315.514 286.256 318.781 281.68 318.384C277.103 317.987 273.726 314.077 274.137 309.65C274.548 305.224 278.591 301.957 283.167 302.354C287.744 302.751 291.121 306.661 290.71 311.088Z" fill="#EF1A2D"/>
<path d="M264.931 147.518C265.064 146.09 266.368 145.036 267.844 145.164L328.789 150.451C330.265 150.579 331.355 151.84 331.222 153.268C331.09 154.696 329.786 155.75 328.309 155.622L267.364 150.335C265.888 150.207 264.799 148.946 264.931 147.518Z" fill="#EF1A2D"/>
<path d="M264.931 147.518C265.064 146.09 266.368 145.036 267.844 145.164L328.789 150.451C330.265 150.579 331.355 151.84 331.222 153.268C331.09 154.696 329.786 155.75 328.309 155.622L267.364 150.335C265.888 150.207 264.799 148.946 264.931 147.518Z" fill="#EF1A2D"/>
<path d="M264.931 147.518C265.064 146.09 266.368 145.036 267.844 145.164L328.789 150.451C330.265 150.579 331.355 151.84 331.222 153.268C331.09 154.696 329.786 155.75 328.309 155.622L267.364 150.335C265.888 150.207 264.799 148.946 264.931 147.518Z" fill="#EF1A2D"/>
<path d="M264.115 156.309C264.248 154.881 265.552 153.827 267.028 153.955L318.351 158.407C319.827 158.535 320.916 159.796 320.784 161.224C320.651 162.652 319.347 163.706 317.871 163.578L266.549 159.126C265.072 158.998 263.983 157.737 264.115 156.309Z" fill="#FFF0F0"/>
<path d="M244.223 306.795C244.356 305.367 245.66 304.313 247.136 304.441L261.036 305.647C262.512 305.775 263.602 307.036 263.469 308.464C263.337 309.892 262.032 310.946 260.556 310.818L246.656 309.612C245.18 309.484 244.091 308.223 244.223 306.795Z" fill="#FFF0F0"/>
<path d="M301.426 311.757C301.558 310.329 302.863 309.275 304.339 309.403L323.585 311.072C325.061 311.2 326.15 312.462 326.018 313.89C325.885 315.318 324.581 316.372 323.105 316.243L303.859 314.574C302.383 314.446 301.293 313.185 301.426 311.757Z" fill="#FFF0F0"/>
<path d="M223.538 320.639C223.67 319.211 224.975 318.157 226.451 318.285L556.302 346.896C557.778 347.024 558.868 348.286 558.735 349.714C558.603 351.142 557.299 352.196 555.822 352.067L225.971 323.456C224.495 323.328 223.405 322.067 223.538 320.639Z" fill="#FFF0F0"/>
<path d="M222.626 330.464C222.759 329.036 224.063 327.982 225.539 328.11L468.784 349.209C470.261 349.337 471.35 350.599 471.218 352.027C471.085 353.455 469.781 354.508 468.305 354.38L225.059 333.281C223.583 333.153 222.494 331.892 222.626 330.464Z" fill="#FFF0F0"/>
<path d="M344.053 154.381C344.185 152.953 345.489 151.899 346.966 152.027L398.288 156.479C399.764 156.607 400.853 157.868 400.721 159.296C400.588 160.724 399.284 161.778 397.808 161.65L346.486 157.198C345.01 157.07 343.92 155.809 344.053 154.381Z" fill="#FFF0F0"/>
<path d="M605.043 181.711C605.175 180.283 606.48 179.229 607.956 179.357L625.063 180.841C626.539 180.969 627.629 182.23 627.496 183.658C627.364 185.086 626.06 186.14 624.583 186.012L607.476 184.528C606 184.4 604.91 183.139 605.043 181.711Z" fill="#FFF0F0"/>
</g>
<rect width="175.205" height="5.81449" rx="2.90724" transform="matrix(0.996842 -0.0794059 0.08491 0.996389 30.665 259.807)" fill="#E7DADA"/>
<rect width="175.205" height="5.81449" rx="2.90724" transform="matrix(0.996842 -0.0794059 0.08491 0.996389 19.8418 271.433)" fill="#E7DADA"/>
<rect width="100.924" height="6.01101" rx="3.00551" transform="matrix(0.0924581 -0.995717 0.996254 0.086472 190.925 346.386)" fill="#E7DADA"/>
<rect width="100.924" height="6.01101" rx="3.00551" transform="matrix(0.0924581 -0.995717 0.996254 0.086472 180.103 358.012)" fill="#E7DADA"/>
<rect width="175.205" height="5.81449" rx="2.90724" transform="matrix(0.996842 0.0794059 -0.08491 0.996389 461.492 134.786)" fill="#E7DADA"/>
<rect width="175.205" height="5.81449" rx="2.90724" transform="matrix(0.996842 0.0794059 -0.08491 0.996389 472.315 123.16)" fill="#E7DADA"/>
<rect width="100.924" height="6.01101" rx="3.00551" transform="matrix(-0.0924581 -0.995717 0.996254 -0.086472 461.478 140.54)" fill="#E7DADA"/>
<rect width="100.924" height="6.01101" rx="3.00551" transform="matrix(-0.0924581 -0.995717 0.996254 -0.086472 472.301 129.495)" fill="#E7DADA"/>
<path d="M118.86 320.255L158.332 325.009M131.911 301.31L138.877 302.149M156.581 311.143L167.032 312.379L168.768 298.91L164.413 296.106M122.343 320.675L127.26 282.513C127.838 278.023 131.239 276.153 135.093 276.617L153.668 278.854C157.522 279.318 160.344 281.938 159.766 286.428L154.849 324.59L122.343 320.675ZM137.167 295.104L146.989 296.287C149.404 296.578 151.522 295.693 151.924 292.573L152.28 289.812C152.682 286.692 150.853 285.331 148.438 285.041L138.616 283.858C136.202 283.567 134.083 284.452 133.681 287.572L133.326 290.333C132.924 293.453 134.753 294.814 137.167 295.104Z" stroke="#EF1A2D" stroke-width="3" stroke-linecap="round" stroke-linejoin="round"/>
<path d="M120.957 352.775L112.301 347.178M101.493 313.73L103.12 322.496C103.342 323.699 104.455 325.138 105.603 325.661L112.404 328.858C116.762 330.896 116.837 334.403 112.593 336.655L105.372 340.46C104.165 341.099 103.086 342.72 103.012 344.051L102.568 351.179C102.212 356.804 98.6982 358.03 94.7294 353.905L89.1856 348.143C88.1767 347.091 86.1807 346.54 84.7648 346.883L76.8842 348.803C71.2443 350.173 68.9704 347.304 71.8274 342.396L75.4583 336.19C76.1367 335.03 76.1633 333.109 75.5025 331.942L71.5666 324.961C69.2611 320.852 71.2907 317.947 76.0891 318.511L83.5796 319.397C84.8471 319.537 86.5827 318.94 87.4371 318.033L93.7278 311.508C97.1166 307.983 100.618 308.988 101.493 313.73Z" stroke="#EF1A2D" stroke-width="3" stroke-linecap="round" stroke-linejoin="round"/>
<path d="M503.955 75.7367L501.289 76.0907M549.272 69.7188L546.606 70.0728M523.45 60.0183L524.182 65.1729M520.183 65.7039L528.181 64.6419M511.849 93.0699L519.846 92.0079M535.841 89.8839L543.838 88.8219M532.744 58.3376L514.031 60.8226C507.393 61.7041 506.381 65.0946 506.084 69.1254L505.053 83.4686L547.705 77.8047L542.712 64.2615C541.302 60.4573 539.382 57.4562 532.744 58.3376ZM556.239 99.8321C556.961 102.809 554.825 105.744 551.626 106.169L546.614 106.835C543.735 107.217 543.167 106.085 542.452 104.683L541.699 103.207C540.652 101.193 539.971 99.8391 536.132 100.349L522.484 102.161C518.645 102.671 518.312 104.343 517.92 106.365L517.607 107.982C517.309 109.518 517.078 110.757 514.199 111.139L509.187 111.805C505.988 112.23 503.113 109.959 502.977 106.905L502.24 91.0109C502.064 87.0954 502.387 83.8226 509.371 82.8952L543.386 78.3782C550.37 77.4508 551.594 80.5182 552.516 84.3346L556.239 99.8321Z" stroke="#EF1A2D" stroke-width="3" stroke-linecap="round" stroke-linejoin="round"/>
<path d="M561.834 50.7722C562.201 48.0513 559.7 45.492 556.244 45.0567C552.789 44.6214 549.693 46.4757 549.327 49.1965M564.309 56.0031L563.121 55.8534C561.87 55.6959 560.619 56.0148 559.629 56.751L556.611 58.9687C555.235 59.979 553.25 59.7289 552.187 58.4114L549.858 55.52C549.096 54.5632 547.956 53.943 546.72 53.7874L545.548 53.6397C542.953 53.3127 541.128 51.0385 541.463 48.5595L543.685 32.0682C544.019 29.5892 546.385 27.8428 548.98 28.1697L567.742 30.5331C570.337 30.8601 572.161 33.1344 571.827 35.6133L569.604 52.1046C569.272 54.5685 566.904 56.3301 564.309 56.0031ZM560.851 38.3658C560.589 40.3109 558.745 41.6823 556.733 41.4289C554.721 41.1754 553.303 39.3931 553.565 37.448C553.827 35.5029 555.671 34.1316 557.683 34.385C559.695 34.6384 561.113 36.4207 560.851 38.3658Z" stroke="#EF1A2D" stroke-width="3" stroke-linecap="round" stroke-linejoin="round"/>
<path d="M134.638 346.647L137.684 347.188L136.38 354.049C136.076 355.65 136.911 356.133 138.233 355.127L147.252 348.257C148.358 347.419 148.131 346.522 146.742 346.275L143.696 345.734L145 338.873C145.304 337.272 144.469 336.789 143.147 337.795L134.128 344.665C133.03 345.514 133.258 346.402 134.638 346.647Z" stroke="#EF1A2D" stroke-width="3" stroke-miterlimit="10" stroke-linecap="round" stroke-linejoin="round"/>
<path d="M89.1384 284.408L88.195 287.26L81.3229 285.134C79.7194 284.638 79.117 285.378 79.9808 286.774L85.8779 296.298C86.5962 297.466 87.5456 297.363 87.9761 296.062L88.9195 293.211L95.7916 295.336C97.3951 295.832 97.9974 295.092 97.1337 293.696L91.2365 284.172C90.5057 283.01 89.5658 283.116 89.1384 284.408Z" stroke="#EF1A2D" stroke-width="3" stroke-miterlimit="10" stroke-linecap="round" stroke-linejoin="round"/>
<path d="M568.662 89.6244L571.707 90.1654L570.403 97.0263C570.099 98.6272 570.935 99.1105 572.257 98.1041L581.275 91.2343C582.382 90.3966 582.155 89.4993 580.765 89.2524L577.72 88.7115L579.023 81.8506C579.327 80.2497 578.492 79.7664 577.17 80.7727L568.152 87.6425C567.053 88.4916 567.282 89.3793 568.662 89.6244Z" stroke="#EF1A2D" stroke-width="3" stroke-miterlimit="10" stroke-linecap="round" stroke-linejoin="round"/>
<path d="M523.162 27.386L522.218 30.2375L515.346 28.1122C513.743 27.6163 513.14 28.3557 514.004 29.7519L519.901 39.2759C520.62 40.4441 521.569 40.341 522 39.0399L522.943 36.1884L529.815 38.3137C531.418 38.8096 532.021 38.0702 531.157 36.674L525.26 27.1499C524.529 25.9881 523.589 26.0941 523.162 27.386Z" stroke="#EF1A2D" stroke-width="3" stroke-miterlimit="10" stroke-linecap="round" stroke-linejoin="round"/>
<path d="M592.153 116.018C590.259 112.266 592.232 109.433 596.542 109.722L603.494 110.184C607.804 110.473 609.355 113.546 606.939 117.009L603.038 122.592C600.622 126.055 597.098 125.815 595.204 122.063L592.153 116.018Z" stroke="#EF1A2D" stroke-width="3" stroke-miterlimit="10" stroke-linecap="round" stroke-linejoin="round"/>
<path d="M598.09 65.1884C597.812 61.0217 600.751 59.1253 604.624 60.9759L610.873 63.9564C614.746 65.807 614.974 69.2195 611.378 71.5355L605.576 75.2669C601.981 77.5829 598.815 76.0668 598.538 71.9002L598.09 65.1884Z" stroke="#EF1A2D" stroke-width="3" stroke-miterlimit="10" stroke-linecap="round" stroke-linejoin="round"/>
<path d="M482.514 40.9271C483.034 36.7822 486.283 35.4411 489.737 37.9494L495.313 41.9911C498.767 44.4993 498.341 47.894 494.366 49.5306L487.953 52.1657C483.978 53.8023 481.155 51.7488 481.675 47.6039L482.514 40.9271Z" stroke="#EF1A2D" stroke-width="3" stroke-miterlimit="10" stroke-linecap="round" stroke-linejoin="round"/>
<path d="M52.197 291.839C53.4975 287.858 56.9462 287.118 59.8644 290.198L64.5748 295.163C67.4929 298.243 66.4278 301.504 62.2092 302.405L55.4039 303.854C51.1853 304.755 48.8017 302.234 50.1021 298.253L52.197 291.839Z" stroke="#EF1A2D" stroke-width="3" stroke-miterlimit="10" stroke-linecap="round" stroke-linejoin="round"/>
<path d="M159.727 333.766C161.764 330.084 165.294 329.97 167.576 333.517L171.261 339.235C173.543 342.782 171.875 345.798 167.557 345.933L160.592 346.146C156.274 346.281 154.411 343.379 156.447 339.697L159.727 333.766Z" stroke="#EF1A2D" stroke-width="3" stroke-miterlimit="10" stroke-linecap="round" stroke-linejoin="round"/>
<path d="M17.0937 52.9015L9.42439 30.4248C8.35966 27.3044 9.97205 25.9576 13.0057 27.4355L21.3643 31.5075C22.6229 32.1207 24.176 31.6253 24.7859 30.4162L30.5996 19.2224C31.2338 18.0056 32.7869 17.5102 34.0212 18.1311L45.6071 23.7753C46.8657 24.3885 48.4188 23.8932 49.0288 22.684L53.2405 14.6027C54.7691 11.6697 56.8938 11.8245 57.9586 14.945L65.6359 37.4451C68.0375 44.4837 64.7852 50.7241 57.5051 53.0461L33.238 60.786C26.5322 62.8988 19.3032 59.377 17.0937 52.9015Z" stroke="#EF1A2D" stroke-width="3" stroke-linecap="round" stroke-linejoin="round"/>
<path d="M45.0301 325.979C47.7325 322.723 51.2246 323.239 52.7921 327.132L55.3252 333.408C56.8928 337.3 54.6795 339.968 50.4094 339.332L43.5231 338.302C39.253 337.666 37.9743 334.482 40.6768 331.226L45.0301 325.979Z" stroke="#EF1A2D" stroke-width="3" stroke-miterlimit="10" stroke-linecap="round" stroke-linejoin="round"/>
<path d="M604.1 394.202C604.42 393.438 604.053 392.574 603.281 392.273C602.509 391.971 601.625 392.347 601.306 393.111L604.1 394.202ZM599.276 397.969C598.957 398.733 599.324 399.597 600.095 399.899C600.867 400.2 601.752 399.824 602.071 399.06L599.276 397.969ZM585.425 401.708L584.028 401.163L583.45 402.547L584.847 403.092L585.425 401.708ZM609.351 411.051L608.773 412.435L610.17 412.981L610.749 411.597L609.351 411.051ZM583.611 399.39C582.839 399.088 581.954 399.464 581.635 400.228C581.316 400.993 581.683 401.857 582.454 402.158L583.611 399.39ZM611.166 413.369C611.937 413.671 612.822 413.295 613.141 412.531C613.46 411.766 613.094 410.902 612.322 410.601L611.166 413.369ZM591.407 376.196L590.439 377.355C590.894 377.721 591.529 377.788 592.064 377.525C592.598 377.263 592.932 376.72 592.919 376.137L591.407 376.196ZM587.949 371.617L586.53 372.155C586.539 372.179 586.549 372.203 586.559 372.227L587.949 371.617ZM597.791 359.048L598.832 360.11C599.204 359.757 599.371 359.246 599.278 358.752C599.185 358.258 598.843 357.849 598.369 357.664L597.791 359.048ZM592.725 369.177L594.122 369.723L592.725 369.177ZM622.655 388.398L621.609 387.341C621.181 387.751 621.031 388.366 621.227 388.913C621.423 389.461 621.929 389.839 622.519 389.882L622.655 388.398ZM628.432 387.425L628.994 388.797C629.019 388.787 629.043 388.776 629.067 388.765L628.432 387.425ZM630.379 371.773L630.957 370.389C630.484 370.204 629.944 370.269 629.522 370.562C629.1 370.854 628.854 371.334 628.867 371.838L630.379 371.773ZM626.748 382.463L628.145 383.008L626.748 382.463ZM601.306 393.111L599.276 397.969L602.071 399.06L604.1 394.202L601.306 393.111ZM584.847 403.092L608.773 412.435L609.929 409.667L586.003 400.324L584.847 403.092ZM610.749 411.597L611.715 409.283L608.92 408.192L607.954 410.505L610.749 411.597ZM611.715 409.283C613.11 405.943 611.415 402.175 608.043 400.859L606.887 403.627C608.779 404.366 609.651 406.443 608.92 408.192L611.715 409.283ZM608.043 400.859L593.687 395.253L592.531 398.021L606.887 403.627L608.043 400.859ZM593.687 395.253C590.316 393.936 586.39 395.509 584.994 398.849L587.789 399.94C588.519 398.192 590.639 397.282 592.531 398.021L593.687 395.253ZM584.994 398.849L584.028 401.163L586.822 402.254L587.789 399.94L584.994 398.849ZM582.454 402.158L611.166 413.369L612.322 410.601L583.611 399.39L582.454 402.158ZM603.405 390.976C594.886 387.649 590.833 378.329 594.24 370.173L591.446 369.082C587.374 378.83 592.25 389.84 602.249 393.744L603.405 390.976ZM594.24 370.173L597.139 363.233L594.345 362.142L591.446 369.082L594.24 370.173ZM597.139 363.233C598.943 358.917 604.052 356.78 608.6 358.556L609.756 355.787C603.729 353.434 596.813 356.234 594.345 362.142L597.139 363.233ZM608.6 358.556L622.956 364.161L624.112 361.393L609.756 355.787L608.6 358.556ZM622.956 364.161C627.504 365.937 629.645 370.905 627.842 375.222L630.636 376.313C633.104 370.405 630.139 363.747 624.112 361.393L622.956 364.161ZM627.842 375.222L624.943 382.161L627.737 383.253L630.636 376.313L627.842 375.222ZM624.943 382.161C621.535 390.318 611.925 394.303 603.405 390.976L602.249 393.744C612.248 397.648 623.665 393.001 627.737 383.253L624.943 382.161ZM592.375 375.038C591.02 373.948 589.999 372.513 589.339 371.008L586.559 372.227C587.382 374.099 588.669 375.933 590.439 377.355L592.375 375.038ZM589.368 371.08C588.273 368.171 588.066 365.234 589.236 362.434L586.441 361.343C584.905 365.02 585.25 368.755 586.53 372.155L589.368 371.08ZM589.236 362.434C590.256 359.991 593.048 358.806 595.658 359.825L596.814 357.057C592.725 355.46 588.127 357.308 586.441 361.343L589.236 362.434ZM595.658 359.825L597.213 360.432L598.369 357.664L596.814 357.057L595.658 359.825ZM596.75 357.986C595.661 359.022 594.813 360.288 594.227 361.692L597.021 362.783C597.459 361.735 598.075 360.829 598.832 360.11L596.75 357.986ZM594.227 361.692L591.328 368.632L594.122 369.723L597.021 362.783L594.227 361.692ZM591.328 368.632C590.277 371.148 589.836 373.725 589.895 376.255L592.919 376.137C592.869 373.997 593.241 371.834 594.122 369.723L591.328 368.632ZM622.519 389.882C624.814 390.047 627.057 389.592 628.994 388.797L627.87 386.054C626.313 386.693 624.548 387.04 622.79 386.914L622.519 389.882ZM629.067 388.765C632.43 387.178 635.361 384.722 636.897 381.045L634.103 379.953C632.933 382.753 630.674 384.728 627.797 386.086L629.067 388.765ZM636.897 381.045C638.582 377.01 636.601 372.593 632.512 370.996L631.356 373.764C633.966 374.783 635.123 377.511 634.103 379.953L636.897 381.045ZM632.512 370.996L630.957 370.389L629.801 373.157L631.356 373.764L632.512 370.996ZM628.867 371.838C628.895 372.864 628.688 373.929 628.25 374.977L631.044 376.069C631.631 374.665 631.931 373.184 631.89 371.708L628.867 371.838ZM628.25 374.977L625.351 381.917L628.145 383.008L631.044 376.069L628.25 374.977ZM625.351 381.917C624.469 384.028 623.182 385.834 621.609 387.341L623.7 389.456C625.56 387.675 627.094 385.524 628.145 383.008L625.351 381.917Z" fill="#EF1A2D"/>
<defs>
<filter id="filter0_d_319_305" x="33.2783" y="9.88232" width="429.208" height="243.522" filterUnits="userSpaceOnUse" color-interpolation-filters="sRGB">
<feFlood flood-opacity="0" result="BackgroundImageFix"/>
<feColorMatrix in="SourceAlpha" type="matrix" values="0 0 0 0 0 0 0 0 0 0 0 0 0 0 0 0 0 0 127 0" result="hardAlpha"/>
<feOffset dy="4"/>
<feGaussianBlur stdDeviation="2"/>
<feComposite in2="hardAlpha" operator="out"/>
<feColorMatrix type="matrix" values="0 0 0 0 0 0 0 0 0 0 0 0 0 0 0 0 0 0 0.25 0"/>
<feBlend mode="normal" in2="BackgroundImageFix" result="effect1_dropShadow_319_305"/>
<feBlend mode="normal" in="SourceGraphic" in2="effect1_dropShadow_319_305" result="shape"/>
</filter>
<filter id="filter1_d_319_305" x="206.439" y="136.608" width="430.485" height="246.235" filterUnits="userSpaceOnUse" color-interpolation-filters="sRGB">
<feFlood flood-opacity="0" result="BackgroundImageFix"/>
<feColorMatrix in="SourceAlpha" type="matrix" values="0 0 0 0 0 0 0 0 0 0 0 0 0 0 0 0 0 0 127 0" result="hardAlpha"/>
<feOffset dy="4"/>
<feGaussianBlur stdDeviation="2"/>
<feComposite in2="hardAlpha" operator="out"/>
<feColorMatrix type="matrix" values="0 0 0 0 0 0 0 0 0 0 0 0 0 0 0 0 0 0 0.25 0"/>
<feBlend mode="normal" in2="BackgroundImageFix" result="effect1_dropShadow_319_305"/>
<feBlend mode="normal" in="SourceGraphic" in2="effect1_dropShadow_319_305" result="shape"/>
</filter>
</defs>
</svg>
