<svg width="948" height="725" viewBox="0 0 948 725" fill="none" xmlns="http://www.w3.org/2000/svg">
<rect x="53.3107" y="301.071" width="647.411" height="12.9772" rx="6.4886" transform="rotate(4.54 53.3107 301.071)" fill="#E7DADA"/>
<rect x="84.4559" width="702.831" height="12.9772" rx="6.4886" transform="rotate(4.54 84.4559 0)" fill="#E7DADA"/>
<rect x="166.483" y="395.485" width="702.831" height="12.9772" rx="6.4886" transform="rotate(-4.74 166.483 395.485)" fill="#E7DADA"/>
<rect x="208.01" y="683.579" width="702.831" height="12.9772" rx="6.4886" transform="rotate(-4.74 208.01 683.579)" fill="#E7DADA"/>
<rect x="102.624" y="334.812" width="411.845" height="12.9772" rx="6.4886" transform="rotate(4.54 102.624 334.812)" fill="#E7DADA"/>
<rect x="296.255" y="712.067" width="576.456" height="12.9772" rx="6.4886" transform="rotate(-4.74 296.255 712.067)" fill="#E7DADA"/>
<g clip-path="url(#clip0_25_42)">
<mask id="mask0_25_42" style="mask-type:luminance" maskUnits="userSpaceOnUse" x="23" y="25" width="792" height="311">
<path d="M814.458 87.128L43.4406 25.9545L23.7337 274.336L794.751 335.51L814.458 87.128Z" fill="white"/>
</mask>
<g mask="url(#mask0_25_42)">
<path d="M814.458 87.128L43.4406 25.9545L23.7337 274.336L794.751 335.51L814.458 87.128Z" fill="white"/>
<path d="M814.458 87.128L43.4406 25.9545L23.7337 274.336L794.751 335.51L814.458 87.128Z" fill="#E7DADA"/>
<path d="M814.458 87.128L43.4406 25.9545L39.1999 79.4036L810.217 140.577L814.458 87.128Z" fill="#F3E5E5"/>
<path d="M511.175 97.8675L328.648 83.3856C326.041 83.1788 323.76 85.1226 323.553 87.7272C323.347 90.3318 325.293 92.611 327.9 92.8178L510.426 107.3C513.033 107.507 515.314 105.563 515.521 102.958C515.728 100.354 513.782 98.0744 511.175 97.8675Z" fill="#E7DADA"/>
<path d="M168.515 225.71L80.399 218.719C77.7919 218.512 75.5109 220.455 75.3043 223.06C75.0976 225.665 77.0435 227.944 79.6506 228.151L167.767 235.142C170.374 235.349 172.655 233.405 172.862 230.8C173.068 228.196 171.122 225.917 168.515 225.71Z" fill="#F7898F"/>
<path d="M316.425 237.445L228.308 230.454C225.701 230.247 223.42 232.191 223.214 234.795C223.007 237.4 224.953 239.679 227.56 239.886L315.676 246.877C318.283 247.084 320.564 245.14 320.771 242.536C320.978 239.931 319.032 237.652 316.425 237.445Z" fill="#F7898F"/>
<path d="M461.187 248.931L373.071 241.939C370.464 241.733 368.183 243.676 367.976 246.281C367.77 248.886 369.716 251.165 372.323 251.372L460.439 258.363C463.046 258.57 465.327 256.626 465.534 254.021C465.74 251.417 463.794 249.138 461.187 248.931Z" fill="#F7898F"/>
<path d="M509.524 78.7535L333.292 64.771C330.685 64.5642 328.404 66.508 328.197 69.1126C327.99 71.7172 329.936 73.9964 332.543 74.2032L508.776 88.1858C511.383 88.3926 513.664 86.4488 513.871 83.8442C514.077 81.2396 512.131 78.9604 509.524 78.7535Z" fill="#F7898F"/>
<path d="M609.097 260.666L520.98 253.675C518.373 253.468 516.092 255.412 515.886 258.016C515.679 260.621 517.625 262.9 520.232 263.107L608.348 270.098C610.955 270.305 613.236 268.361 613.443 265.757C613.65 263.152 611.704 260.873 609.097 260.666Z" fill="#F7898F"/>
<path d="M750.712 271.902L662.596 264.911C659.989 264.704 657.708 266.648 657.501 269.252C657.295 271.857 659.24 274.136 661.848 274.343L749.964 281.334C752.571 281.541 754.852 279.597 755.059 276.993C755.265 274.388 753.319 272.109 750.712 271.902Z" fill="#F7898F"/>
<path d="M157.578 243.825L91.4903 238.582C88.8832 238.375 86.6022 240.319 86.3956 242.923C86.1889 245.528 88.1349 247.807 90.7419 248.014L156.829 253.257C159.436 253.464 161.717 251.52 161.924 248.916C162.13 246.311 160.185 244.032 157.578 243.825Z" fill="#FFF0F0"/>
<path d="M305.487 255.56L239.4 250.317C236.793 250.11 234.512 252.054 234.305 254.659C234.098 257.263 236.044 259.542 238.651 259.749L304.739 264.993C307.346 265.2 309.627 263.256 309.833 260.651C310.04 258.046 308.094 255.767 305.487 255.56Z" fill="#FFF0F0"/>
<path d="M450.249 267.046L384.162 261.803C381.555 261.596 379.274 263.54 379.068 266.144C378.861 268.749 380.807 271.028 383.414 271.235L449.501 276.478C452.108 276.685 454.389 274.741 454.596 272.137C454.802 269.532 452.857 267.253 450.249 267.046Z" fill="#FFF0F0"/>
<path d="M598.159 278.781L532.072 273.538C529.465 273.331 527.184 275.275 526.977 277.88C526.77 280.484 528.716 282.763 531.323 282.97L597.411 288.214C600.018 288.42 602.299 286.477 602.505 283.872C602.712 281.267 600.766 278.988 598.159 278.781Z" fill="#FFF0F0"/>
<path d="M739.774 290.017L673.687 284.774C671.08 284.567 668.799 286.511 668.593 289.116C668.386 291.72 670.332 293.999 672.939 294.206L739.026 299.45C741.633 299.656 743.914 297.713 744.121 295.108C744.327 292.503 742.382 290.224 739.774 290.017Z" fill="#FFF0F0"/>
<path d="M173.773 99.5724L101.392 93.8296C89.2254 92.8643 78.5809 101.935 77.6165 114.09L71.879 186.404C70.9146 198.559 79.9956 209.195 92.1619 210.16L164.543 215.903C176.709 216.868 187.354 207.797 188.318 195.642L194.056 123.329C195.02 111.174 185.939 100.538 173.773 99.5724Z" fill="#FFF0F0"/>
<path d="M129.745 195.477C140.314 196.316 150.226 193.056 157.987 187.011C157.883 183.161 155.741 179.231 151.623 175.962C141.153 167.694 122.943 166.249 111.219 172.757C106.637 175.336 103.902 178.878 103.192 182.663C109.903 189.857 119.177 194.639 129.745 195.477ZM129.745 195.477C152.195 197.258 171.837 180.52 173.616 158.091C175.396 135.663 158.639 116.036 136.19 114.255C113.74 112.474 94.0983 129.212 92.3188 151.641C90.5392 174.07 107.296 193.696 129.745 195.477ZM133.204 158.073C132.923 158.009 132.557 157.98 132.228 157.995C125.094 157.184 119.867 150.884 120.437 143.696C121.02 136.346 127.429 130.847 134.827 131.434C142.184 132.018 147.686 138.461 147.103 145.812C146.492 152.997 140.378 158.397 133.204 158.073Z" stroke="#F7898F" stroke-width="2" stroke-linecap="round" stroke-linejoin="round"/>
<path d="M463.298 122.544L390.917 116.801C378.75 115.836 368.106 124.907 367.141 137.062L361.404 209.375C360.44 221.53 369.521 232.166 381.687 233.131L454.068 238.874C466.234 239.84 476.879 230.769 477.843 218.614L483.581 146.3C484.545 134.145 475.464 123.509 463.298 122.544Z" fill="#FFF0F0"/>
<path d="M419.27 218.449C429.838 219.287 439.752 216.028 447.512 209.982C447.409 206.132 445.267 202.203 441.15 198.934C430.677 190.665 412.469 189.221 400.742 195.728C396.161 198.307 393.425 201.849 392.717 205.635C399.426 212.828 408.703 217.61 419.27 218.449ZM419.27 218.449C441.721 220.23 461.363 203.492 463.142 181.063C464.922 158.634 448.165 139.008 425.715 137.227C403.264 135.445 383.622 152.183 381.842 174.612C380.063 197.041 396.82 216.667 419.27 218.449ZM422.729 181.044C422.449 180.981 422.081 180.952 421.753 180.967C414.619 180.155 409.391 173.856 409.961 166.667C410.544 159.317 416.953 153.818 424.352 154.405C431.709 154.989 437.212 161.433 436.629 168.783C436.017 175.968 429.901 181.368 422.729 181.044Z" stroke="#F7898F" stroke-width="2" stroke-linecap="round" stroke-linejoin="round"/>
<path d="M746.529 145.016L674.148 139.273C661.981 138.308 651.337 147.379 650.372 159.534L644.635 231.847C643.67 244.002 652.751 254.638 664.918 255.603L737.299 261.346C749.465 262.312 760.11 253.241 761.074 241.086L766.812 168.772C767.776 156.617 758.695 145.981 746.529 145.016Z" fill="#FFF0F0"/>
<path d="M702.501 240.92C713.069 241.759 722.983 238.5 730.743 232.454C730.64 228.604 728.498 224.675 724.38 221.406C713.908 213.137 695.7 211.693 683.973 218.2C679.392 220.779 676.656 224.321 675.948 228.107C682.657 235.3 691.933 240.082 702.501 240.92ZM702.501 240.92C724.952 242.702 744.594 225.964 746.373 203.535C748.153 181.106 731.396 161.48 708.945 159.698C686.495 157.917 666.853 174.655 665.073 197.084C663.294 219.513 680.05 239.139 702.501 240.92ZM705.96 203.516C705.68 203.453 705.312 203.424 704.984 203.438C697.85 202.627 692.621 196.328 693.192 189.139C693.775 181.789 700.184 176.29 707.582 176.877C714.94 177.461 720.443 183.905 719.859 191.255C719.248 198.44 713.132 203.84 705.96 203.516Z" stroke="#F7898F" stroke-width="2" stroke-linecap="round" stroke-linejoin="round"/>
<path d="M318.535 111.058L246.154 105.315C233.988 104.35 223.343 113.421 222.379 125.576L216.642 197.89C215.677 210.045 224.758 220.681 236.924 221.646L309.306 227.389C321.472 228.354 332.117 219.283 333.081 207.128L338.818 134.814C339.783 122.659 330.702 112.023 318.535 111.058Z" fill="#FFF0F0"/>
<path d="M274.508 206.963C285.076 207.802 294.988 204.542 302.749 198.497C302.646 194.647 300.503 190.717 296.386 187.448C285.916 179.18 267.705 177.735 255.981 184.242C251.399 186.821 248.664 190.364 247.954 194.149C254.665 201.343 263.939 206.124 274.508 206.963ZM274.508 206.963C296.958 208.744 316.599 192.006 318.379 169.577C320.158 147.148 303.402 127.522 280.952 125.741C258.502 123.96 238.86 140.698 237.081 163.127C235.301 185.556 252.058 205.182 274.508 206.963ZM277.966 169.558C277.685 169.495 277.319 169.466 276.991 169.481C269.856 168.67 264.629 162.37 265.199 155.182C265.782 147.831 272.191 142.333 279.589 142.92C286.946 143.503 292.448 149.947 291.865 157.298C291.254 164.483 285.14 169.882 277.966 169.558Z" stroke="#F7898F" stroke-width="2" stroke-linecap="round" stroke-linejoin="round"/>
<path d="M608.06 134.029L535.679 128.287C523.513 127.321 512.868 136.392 511.904 148.547L506.166 220.861C505.202 233.016 514.283 243.652 526.449 244.617L598.831 250.36C610.997 251.325 621.641 242.254 622.606 230.099L628.343 157.786C629.308 145.631 620.227 134.995 608.06 134.029Z" fill="#FFF0F0"/>
<path d="M564.033 229.934C574.6 230.773 584.515 227.513 592.275 221.468C592.172 217.618 590.029 213.689 585.912 210.42C575.44 202.151 557.231 200.706 545.504 207.214C540.923 209.792 538.188 213.335 537.479 217.12C544.189 224.314 553.465 229.096 564.033 229.934ZM564.033 229.934C586.484 231.716 606.125 214.977 607.905 192.549C609.684 170.12 592.928 150.494 570.477 148.712C548.026 146.931 528.384 163.669 526.605 186.098C524.825 208.527 541.582 228.153 564.033 229.934ZM567.491 192.53C567.211 192.467 566.843 192.437 566.516 192.452C559.382 191.641 554.153 185.341 554.723 178.153C555.307 170.803 561.715 165.304 569.114 165.891C576.472 166.475 581.974 172.918 581.391 180.269C580.78 187.454 574.664 192.854 567.491 192.53Z" stroke="#F7898F" stroke-width="2" stroke-linecap="round" stroke-linejoin="round"/>
</g>
</g>
<g clip-path="url(#clip1_25_42)">
<mask id="mask1_25_42" style="mask-type:luminance" maskUnits="userSpaceOnUse" x="143" y="355" width="792" height="313">
<path d="M913.916 355.575L143.124 419.53L163.727 667.838L934.519 603.884L913.916 355.575Z" fill="white"/>
</mask>
<g mask="url(#mask1_25_42)">
<path d="M913.916 355.575L143.124 419.53L163.727 667.838L934.519 603.884L913.916 355.575Z" fill="white"/>
<path d="M913.916 355.575L143.124 419.53L163.727 667.838L934.519 603.884L913.916 355.575Z" fill="#E7DADA"/>
<path d="M913.916 355.575L143.124 419.53L147.557 472.963L918.349 409.009L913.916 355.575Z" fill="#F3E5E5"/>
<path d="M616.333 415.079L433.86 430.219C431.253 430.435 429.316 432.722 429.532 435.325C429.748 437.929 432.036 439.865 434.642 439.649L617.115 424.508C619.722 424.292 621.659 422.006 621.443 419.402C621.227 416.798 618.939 414.863 616.333 415.079Z" fill="#E7DADA"/>
<path d="M298.773 596.502L210.682 603.811C208.076 604.028 206.138 606.314 206.354 608.918C206.57 611.522 208.858 613.457 211.465 613.241L299.555 605.932C302.161 605.716 304.099 603.429 303.883 600.826C303.667 598.222 301.379 596.286 298.773 596.502Z" fill="#F7898F"/>
<path d="M446.639 584.234L358.548 591.543C355.942 591.759 354.004 594.045 354.22 596.649C354.436 599.253 356.724 601.188 359.331 600.972L447.421 593.663C450.027 593.447 451.965 591.161 451.749 588.557C451.533 585.953 449.245 584.017 446.639 584.234Z" fill="#F7898F"/>
<path d="M591.359 572.226L503.268 579.535C500.662 579.751 498.724 582.037 498.94 584.641C499.156 587.245 501.444 589.181 504.051 588.964L592.141 581.655C594.748 581.439 596.685 579.153 596.469 576.549C596.253 573.945 593.965 572.009 591.359 572.226Z" fill="#F7898F"/>
<path d="M611.622 396.481L435.441 411.099C432.835 411.316 430.897 413.602 431.113 416.206C431.329 418.809 433.617 420.745 436.223 420.529L612.404 405.911C615.011 405.694 616.948 403.408 616.732 400.804C616.516 398.2 614.228 396.265 611.622 396.481Z" fill="#F7898F"/>
<path d="M739.225 559.957L651.135 567.266C648.528 567.482 646.591 569.768 646.807 572.372C647.023 574.976 649.311 576.912 651.917 576.695L740.007 569.386C742.614 569.17 744.551 566.884 744.335 564.28C744.119 561.676 741.831 559.741 739.225 559.957Z" fill="#F7898F"/>
<path d="M880.799 548.21L792.709 555.519C790.102 555.735 788.165 558.022 788.381 560.625C788.597 563.229 790.885 565.165 793.491 564.949L881.581 557.64C884.188 557.423 886.125 555.137 885.909 552.533C885.693 549.929 883.405 547.994 880.799 548.21Z" fill="#F7898F"/>
<path d="M290.899 616.144L224.831 621.626C222.225 621.842 220.287 624.129 220.503 626.732C220.719 629.336 223.007 631.272 225.614 631.056L291.681 625.574C294.288 625.358 296.225 623.071 296.009 620.467C295.793 617.864 293.505 615.928 290.899 616.144Z" fill="#FFF0F0"/>
<path d="M438.765 603.876L372.697 609.357C370.091 609.574 368.153 611.86 368.369 614.464C368.586 617.067 370.873 619.003 373.48 618.787L439.548 613.305C442.154 613.089 444.092 610.803 443.876 608.199C443.66 605.595 441.372 603.659 438.765 603.876Z" fill="#FFF0F0"/>
<path d="M583.485 591.868L517.418 597.35C514.811 597.566 512.874 599.852 513.09 602.456C513.306 605.06 515.594 606.995 518.2 606.779L584.268 601.297C586.874 601.081 588.812 598.795 588.596 596.191C588.38 593.587 586.092 591.651 583.485 591.868Z" fill="#FFF0F0"/>
<path d="M731.352 579.599L665.284 585.081C662.677 585.297 660.74 587.583 660.956 590.187C661.172 592.791 663.46 594.726 666.066 594.51L732.134 589.028C734.74 588.812 736.678 586.526 736.462 583.922C736.246 581.318 733.958 579.383 731.352 579.599Z" fill="#FFF0F0"/>
<path d="M872.926 567.852L806.858 573.334C804.251 573.55 802.314 575.836 802.53 578.44C802.746 581.044 805.034 582.98 807.64 582.763L873.708 577.282C876.314 577.065 878.252 574.779 878.036 572.175C877.82 569.571 875.532 567.636 872.926 567.852Z" fill="#FFF0F0"/>
<path d="M283.622 471.168L211.262 477.172C199.099 478.181 190.056 488.85 191.065 501.001L197.063 573.294C198.071 585.445 208.748 594.478 220.911 593.468L293.271 587.464C305.434 586.455 314.476 575.787 313.468 563.635L307.47 491.343C306.462 479.191 295.784 470.159 283.622 471.168Z" fill="#FFF0F0"/>
<path d="M255.635 572.917C266.201 572.041 275.457 567.225 282.142 560.008C281.419 556.225 278.671 552.692 274.08 550.13C262.414 543.658 244.208 545.169 233.687 553.481C229.581 556.765 227.453 560.703 227.363 564.553C235.146 570.57 245.069 573.794 255.635 572.917ZM255.635 572.917C278.078 571.055 294.764 551.369 292.903 528.946C291.043 506.524 271.341 489.857 248.898 491.719C226.455 493.581 209.769 513.268 211.63 535.69C213.49 558.112 233.192 574.779 255.635 572.917ZM253.017 535.444C252.729 535.428 252.363 535.458 252.041 535.525C244.869 535.875 238.695 530.501 238.099 523.315C237.489 515.966 242.927 509.506 250.323 508.893C257.678 508.282 264.147 513.755 264.757 521.103C265.312 528.292 260.149 534.607 253.017 535.444Z" stroke="#F7898F" stroke-width="2" stroke-linecap="round" stroke-linejoin="round"/>
<path d="M573.062 447.152L500.702 453.156C488.539 454.165 479.497 464.834 480.505 476.986L486.503 549.278C487.511 561.429 498.188 570.462 510.351 569.453L582.711 563.449C594.874 562.44 603.917 551.771 602.908 539.62L596.91 467.327C595.902 455.176 585.225 446.143 573.062 447.152Z" fill="#FFF0F0"/>
<path d="M545.075 548.902C555.64 548.025 564.899 543.21 571.582 535.992C570.86 532.209 568.112 528.677 563.521 526.114C551.853 519.643 533.65 521.153 523.126 529.466C519.02 532.75 516.892 536.687 516.803 540.537C524.585 546.555 534.511 549.778 545.075 548.902ZM545.075 548.902C567.519 547.039 584.205 527.353 582.345 504.931C580.484 482.508 560.782 465.841 538.338 467.703C515.894 469.566 499.208 489.252 501.069 511.674C502.929 534.097 522.631 550.764 545.075 548.902ZM542.457 511.429C542.17 511.412 541.802 511.442 541.482 511.51C534.31 511.86 528.134 506.485 527.538 499.299C526.928 491.951 532.366 485.491 539.763 484.877C547.118 484.267 553.588 489.739 554.198 497.087C554.753 504.277 549.588 510.592 542.457 511.429Z" stroke="#F7898F" stroke-width="2" stroke-linecap="round" stroke-linejoin="round"/>
<path d="M856.21 423.659L783.85 429.663C771.687 430.672 762.645 441.341 763.653 453.492L769.651 525.784C770.659 537.936 781.336 546.968 793.499 545.959L865.859 539.955C878.022 538.946 887.065 528.277 886.056 516.126L880.058 443.834C879.05 431.682 868.373 422.65 856.21 423.659Z" fill="#FFF0F0"/>
<path d="M828.223 525.408C838.788 524.531 848.047 519.716 854.73 512.498C854.008 508.716 851.26 505.183 846.669 502.621C835.001 496.149 816.798 497.659 806.274 505.972C802.168 509.256 800.04 513.194 799.951 517.044C807.733 523.061 817.659 526.285 828.223 525.408ZM828.223 525.408C850.667 523.546 867.353 503.859 865.493 481.437C863.632 459.015 843.93 442.348 821.486 444.21C799.042 446.072 782.356 465.758 784.216 488.181C786.077 510.603 805.779 527.27 828.223 525.408ZM825.605 487.935C825.318 487.918 824.95 487.949 824.63 488.016C817.458 488.366 811.282 482.992 810.686 475.806C810.076 468.457 815.514 461.997 822.911 461.383C830.266 460.773 836.736 466.245 837.346 473.594C837.901 480.783 832.736 487.098 825.605 487.935Z" stroke="#F7898F" stroke-width="2" stroke-linecap="round" stroke-linejoin="round"/>
<path d="M428.342 459.16L355.982 465.164C343.819 466.173 334.776 476.842 335.785 488.993L341.783 561.286C342.791 573.437 353.468 582.47 365.631 581.461L437.991 575.457C450.154 574.447 459.196 563.779 458.188 551.627L452.19 479.335C451.182 467.184 440.505 458.151 428.342 459.16Z" fill="#FFF0F0"/>
<path d="M400.355 560.909C410.921 560.033 420.177 555.218 426.862 548C426.139 544.217 423.39 540.684 418.8 538.122C407.133 531.65 388.928 533.161 378.407 541.474C374.301 544.758 372.173 548.695 372.083 552.545C379.865 558.562 389.789 561.786 400.355 560.909ZM400.355 560.909C422.798 559.047 439.484 539.361 437.623 516.939C435.763 494.516 416.061 477.849 393.618 479.711C371.175 481.573 354.489 501.26 356.349 523.682C358.21 546.104 377.912 562.772 400.355 560.909ZM397.737 523.437C397.449 523.42 397.083 523.45 396.762 523.518C389.589 523.867 383.415 518.493 382.819 511.307C382.209 503.959 387.647 497.498 395.043 496.885C402.398 496.274 408.867 501.747 409.476 509.095C410.032 516.285 404.869 522.6 397.737 523.437Z" stroke="#F7898F" stroke-width="2" stroke-linecap="round" stroke-linejoin="round"/>
<path d="M717.782 435.145L645.422 441.148C633.259 442.158 624.217 452.826 625.225 464.978L631.223 537.27C632.231 549.422 642.909 558.454 655.071 557.445L727.431 551.441C739.594 550.432 748.637 539.763 747.628 527.612L741.63 455.319C740.622 443.168 729.945 434.135 717.782 435.145Z" fill="#FFF0F0"/>
<path d="M689.795 536.894C700.36 536.017 709.619 531.202 716.303 523.984C715.58 520.201 712.832 516.669 708.241 514.106C696.573 507.635 678.37 509.145 667.846 517.458C663.74 520.742 661.612 524.679 661.523 528.529C669.305 534.547 679.231 537.77 689.795 536.894ZM689.795 536.894C712.239 535.032 728.925 515.345 727.065 492.923C725.204 470.501 705.502 453.833 683.058 455.696C660.614 457.558 643.928 477.244 645.789 499.667C647.649 522.089 667.351 538.756 689.795 536.894ZM687.177 499.421C686.891 499.404 686.522 499.435 686.202 499.502C679.03 499.852 672.854 494.478 672.258 487.291C671.648 479.943 677.087 473.483 684.483 472.869C691.839 472.259 698.308 477.731 698.918 485.079C699.473 492.269 694.308 498.584 687.177 499.421Z" stroke="#F7898F" stroke-width="2" stroke-linecap="round" stroke-linejoin="round"/>
</g>
</g>
<path d="M57.3364 451.846L72.4469 445.434L87.3867 480.643C90.8727 488.859 96.0281 488.633 98.8417 480.168L118.015 422.406C120.384 415.341 116.672 411.896 109.777 414.822L94.6663 421.234L79.7265 386.025C76.2405 377.809 71.085 378.035 68.2715 386.5L49.0981 444.262C46.7987 451.355 50.4903 454.751 57.3364 451.846Z" stroke="#EF1A2D" stroke-width="6" stroke-miterlimit="10" stroke-linecap="round" stroke-linejoin="round"/>
<path d="M899.775 210.36L884.102 205.481L895.471 168.962C898.124 160.441 894.045 157.28 886.425 161.918L834.451 193.585C828.076 197.442 828.68 202.471 835.832 204.697L851.505 209.576L840.136 246.095C837.483 254.616 841.562 257.777 849.182 253.139L901.156 221.472C907.496 217.548 906.876 212.571 899.775 210.36Z" stroke="#EF1A2D" stroke-width="6" stroke-miterlimit="10" stroke-linecap="round" stroke-linejoin="round"/>
<path d="M76.1248 593.179L86.2198 573.342M55.1897 563.702L86.9151 540.258C101.147 529.74 112.682 535.61 112.557 553.306L112.277 592.753C112.089 619.297 99.0263 623.518 83.2872 602.189L78.5583 595.759C77.3532 594.128 74.6715 592.763 72.6438 592.749L64.6254 592.692C38.1183 592.523 33.8605 579.441 55.1897 563.702Z" stroke="#EF1A2D" stroke-width="3" stroke-linecap="round" stroke-linejoin="round"/>
<path d="M888.073 45.9721L884.075 35.321C881.035 27.2214 875.465 24.6917 867.365 27.732L847.116 35.3328C839.016 38.3731 836.487 43.943 839.527 52.0427L843.418 62.4102M839.607 79.8278L847.162 99.9554C849.928 107.326 849.928 107.326 858.657 109.409L881.963 113.275C885.462 113.856 890.16 112.093 892.412 109.353L907.417 91.1066C912.62 83.7942 912.62 83.7942 909.853 76.4235L902.298 56.2959C899.531 48.9252 899.531 48.9252 890.802 46.842L867.496 42.9763C863.998 42.3952 859.3 44.1586 857.048 46.8983L842.042 65.1446C836.84 72.4571 836.84 72.4571 839.607 79.8278ZM873.458 66.9826L877.119 69.7205C877.697 70.1507 878.719 70.4136 879.388 70.3476L883.914 69.85C886.708 69.5402 888.218 71.4687 887.317 74.1169L885.835 78.4158C885.628 79.0943 885.654 80.1473 885.937 80.7801L887.777 84.9412C888.927 87.5128 887.565 89.5485 884.771 89.4886L880.209 89.3989C879.51 89.384 878.498 89.764 877.981 90.235L874.606 93.3042C872.54 95.1883 870.161 94.5106 869.35 91.8579L867.997 87.5144C867.794 86.8512 867.105 86.0008 866.518 85.6669L862.573 83.405C860.152 82.0034 860.02 79.558 862.328 77.9524L866.064 75.3489C866.651 74.9436 867.233 74.0321 867.359 73.384L868.315 68.9132C868.952 66.1791 871.22 65.3278 873.458 66.9826Z" stroke="#EF1A2D" stroke-width="3" stroke-linecap="round" stroke-linejoin="round"/>
<path d="M57.3364 447.297L72.4469 440.885L87.3867 476.094C90.8727 484.309 96.0281 484.083 98.8417 475.619L118.015 417.856C120.384 410.792 116.672 407.347 109.777 410.272L94.6663 416.684L79.7265 381.475C76.2405 373.26 71.085 373.485 68.2715 381.95L49.0981 439.713C46.7987 446.805 50.4903 450.201 57.3364 447.297Z" stroke="#F7898F" stroke-width="6" stroke-miterlimit="10" stroke-linecap="round" stroke-linejoin="round"/>
<path d="M899.775 205.811L884.102 200.932L895.471 164.413C898.124 155.892 894.045 152.731 886.425 157.369L834.451 189.036C828.076 192.893 828.68 197.921 835.832 200.148L851.505 205.027L840.136 241.545C837.483 250.066 841.562 253.228 849.182 248.59L901.156 216.923C907.496 212.999 906.876 208.021 899.775 205.811Z" stroke="#F7898F" stroke-width="6" stroke-miterlimit="10" stroke-linecap="round" stroke-linejoin="round"/>
<path d="M76.1248 588.63L86.2198 568.793M55.1897 559.153L86.9151 535.709C101.147 525.191 112.682 531.061 112.557 548.757L112.277 588.204C112.089 614.748 99.0263 618.969 83.2872 597.64L78.5583 591.21C77.3532 589.579 74.6715 588.214 72.6438 588.2L64.6254 588.143C38.1183 587.974 33.8605 574.892 55.1897 559.153Z" stroke="#F7898F" stroke-width="3" stroke-linecap="round" stroke-linejoin="round"/>
<path d="M888.073 41.4228L884.075 30.7717C881.035 22.6721 875.465 20.1424 867.365 23.1827L847.116 30.7834C839.016 33.8237 836.487 39.3937 839.527 47.4934L843.418 57.8609M839.607 75.2785L847.162 95.4061C849.928 102.777 849.928 102.777 858.657 104.86L881.963 108.726C885.462 109.307 890.16 107.543 892.412 104.804L907.417 86.5573C912.62 79.2449 912.62 79.2449 909.853 71.8742L902.298 51.7465C899.531 44.3759 899.531 44.3759 890.802 42.2927L867.496 38.427C863.998 37.8459 859.3 39.6093 857.048 42.349L842.042 60.5953C836.84 67.9078 836.84 67.9078 839.607 75.2785ZM873.458 62.4333L877.119 65.1712C877.697 65.6013 878.719 65.8643 879.388 65.7982L883.914 65.3007C886.708 64.9909 888.218 66.9194 887.317 69.5676L885.835 73.8664C885.628 74.5449 885.654 75.598 885.937 76.2308L887.777 80.3919C888.927 82.9635 887.565 84.9992 884.771 84.9393L880.209 84.8496C879.51 84.8347 878.498 85.2147 877.981 85.6857L874.606 88.7549C872.54 90.6389 870.161 89.9613 869.35 87.3086L867.997 82.965C867.794 82.3019 867.105 81.4515 866.518 81.1176L862.573 78.8557C860.152 77.454 860.02 75.0087 862.328 73.403L866.064 70.7995C866.651 70.3943 867.233 69.4828 867.359 68.8347L868.315 64.3639C868.952 61.6297 871.22 60.7785 873.458 62.4333Z" stroke="#F7898F" stroke-width="3" stroke-linecap="round" stroke-linejoin="round"/>
<defs>
<clipPath id="clip0_25_42">
<rect x="43.4406" y="25.9545" width="773.441" height="249.162" rx="10" transform="rotate(4.53642 43.4406 25.9545)" fill="white"/>
</clipPath>
<clipPath id="clip1_25_42">
<rect x="143.124" y="419.53" width="773.441" height="249.162" rx="10" transform="rotate(-4.74312 143.124 419.53)" fill="white"/>
</clipPath>
</defs>
</svg>
