<svg width="1077" height="727" viewBox="0 0 1077 727" fill="none" xmlns="http://www.w3.org/2000/svg">
<g filter="url(#filter0_d_99_105)">
<path d="M62 72.341L733.724 17L762.544 366.815L90.82 422.156L62 72.341Z" fill="#E7DADA"/>
<path d="M62 72.341L733.724 17L736.414 49.6527C736.913 55.7073 732.409 61.02 726.355 61.5188L76.5562 115.053C70.5016 115.552 65.189 111.048 64.6901 104.994L62 72.341Z" fill="#FFF0F0"/>
<path d="M84.5365 345.888C84.0377 339.833 88.5416 334.52 94.5962 334.021L744.395 280.487C750.449 279.988 755.762 284.492 756.261 290.546L762.544 366.815L90.82 422.156L84.5365 345.888Z" fill="#FFF0F0"/>
<path d="M111.804 89.7456C112.654 100.069 104.979 109.127 94.6601 109.977C84.3414 110.827 75.2869 103.148 74.4364 92.8241C73.5859 82.5006 81.2614 73.4426 91.5801 72.5925C101.899 71.7423 110.953 79.4221 111.804 89.7456Z" fill="#F7898F"/>
<path d="M128.502 357.665C129.13 365.284 123.465 371.97 115.849 372.598C108.232 373.225 101.549 367.557 100.922 359.937C100.294 352.317 105.959 345.631 113.575 345.004C121.192 344.377 127.875 350.045 128.502 357.665Z" fill="#F7898F"/>
<path d="M213.914 350.628C214.541 358.248 208.876 364.933 201.26 365.561C193.644 366.188 186.961 360.52 186.333 352.9C185.705 345.28 191.37 338.595 198.987 337.967C206.603 337.34 213.286 343.008 213.914 350.628Z" fill="#F7898F"/>
<path d="M123.6 80.7084C123.397 78.2504 125.225 76.0937 127.681 75.8913L229.107 67.5352C231.564 67.3328 233.72 69.1613 233.923 71.6192C234.125 74.0772 232.298 76.2339 229.841 76.4363L128.415 84.7924C125.958 84.9948 123.802 83.1663 123.6 80.7084Z" fill="#F7898F"/>
<path d="M123.6 80.7084C123.397 78.2504 125.225 76.0937 127.681 75.8913L229.107 67.5352C231.564 67.3328 233.72 69.1613 233.923 71.6192C234.125 74.0772 232.298 76.2339 229.841 76.4363L128.415 84.7924C125.958 84.9948 123.802 83.1663 123.6 80.7084Z" fill="#F7898F"/>
<path d="M123.6 80.7084C123.397 78.2504 125.225 76.0937 127.681 75.8913L229.107 67.5352C231.564 67.3328 233.72 69.1613 233.923 71.6192C234.125 74.0772 232.298 76.2339 229.841 76.4363L128.415 84.7924C125.958 84.9948 123.802 83.1663 123.6 80.7084Z" fill="#F7898F"/>
<path d="M124.846 95.8403C124.644 93.3823 126.471 91.2256 128.928 91.0232L214.339 83.9865C216.796 83.7841 218.952 85.6126 219.155 88.0706C219.357 90.5285 217.53 92.6852 215.073 92.8876L129.662 99.9244C127.205 100.127 125.049 98.2983 124.846 95.8403Z" fill="#E7DADA"/>
<path d="M136.473 356.56C136.27 354.102 138.098 351.945 140.555 351.743L163.687 349.837C166.144 349.635 168.3 351.463 168.502 353.921C168.705 356.379 166.877 358.536 164.42 358.738L141.288 360.644C138.831 360.846 136.675 359.018 136.473 356.56Z" fill="#E7DADA"/>
<path d="M231.671 348.717C231.468 346.259 233.296 344.102 235.753 343.9L267.782 341.261C270.239 341.059 272.395 342.887 272.597 345.345C272.8 347.803 270.972 349.96 268.515 350.162L236.486 352.801C234.029 353.003 231.873 351.175 231.671 348.717Z" fill="#E7DADA"/>
<path d="M106.644 385.902C106.441 383.444 108.269 381.287 110.726 381.085L659.671 335.859C662.128 335.657 664.284 337.485 664.486 339.943C664.689 342.401 662.861 344.558 660.404 344.76L111.459 389.986C109.002 390.189 106.846 388.36 106.644 385.902Z" fill="#E7DADA"/>
<path d="M108.037 402.814C107.835 400.356 109.662 398.2 112.119 397.997L516.933 364.646C519.39 364.444 521.545 366.272 521.748 368.73C521.95 371.188 520.123 373.345 517.666 373.547L112.852 406.898C110.395 407.101 108.24 405.272 108.037 402.814Z" fill="#E7DADA"/>
<path d="M255.275 69.8601C255.073 67.4021 256.9 65.2454 259.357 65.043L344.769 58.0063C347.225 57.8038 349.381 59.6323 349.584 62.0903C349.786 64.5483 347.959 66.705 345.502 66.9074L260.091 73.9441C257.634 74.1465 255.478 72.318 255.275 69.8601Z" fill="#E7DADA"/>
<path d="M690.999 42.0277C690.797 39.5697 692.624 37.413 695.081 37.2106L723.551 34.8651C726.008 34.6626 728.164 36.4911 728.367 38.9491C728.569 41.4071 726.742 43.5638 724.285 43.7662L695.814 46.1118C693.357 46.3142 691.202 44.4857 690.999 42.0277Z" fill="#E7DADA"/>
<path d="M61.9179 71.3444L60.9213 71.4265L61.0034 72.4231L63.6935 105.076L83.5399 345.97L89.8234 422.238L89.9055 423.235L90.9021 423.152L762.626 367.811L763.623 367.729L763.541 366.733L757.257 290.464L737.411 49.5706L734.721 16.9179L734.639 15.9213L733.642 16.0034L61.9179 71.3444Z" stroke="#F3E5E5" stroke-width="2"/>
</g>
<g filter="url(#filter1_d_99_105)">
<path d="M381.364 235L1052.67 295.227L1021.3 644.823L350 584.596L381.364 235Z" fill="#E7DADA"/>
<path d="M381.364 235L1052.67 295.227L1049.74 327.859C1049.2 333.91 1043.85 338.375 1037.8 337.832L388.41 279.571C382.359 279.028 377.894 273.683 378.437 267.632L381.364 235Z" fill="#FFF0F0"/>
<path d="M356.838 508.375C357.381 502.324 362.726 497.859 368.777 498.402L1018.17 556.663C1024.22 557.206 1028.68 562.551 1028.14 568.602L1021.3 644.823L350 584.596L356.838 508.375Z" fill="#FFF0F0"/>
<path d="M427.463 260.657C426.537 270.974 417.427 278.588 407.115 277.662C396.802 276.737 389.193 267.624 390.119 257.307C391.044 246.99 400.154 239.376 410.467 240.301C420.779 241.226 428.388 250.34 427.463 260.657Z" fill="#F7898F"/>
<path d="M398.146 527.49C397.462 535.105 390.738 540.725 383.127 540.042C375.515 539.359 369.899 532.632 370.582 525.017C371.265 517.402 377.99 511.783 385.601 512.466C393.212 513.149 398.829 519.875 398.146 527.49Z" fill="#F7898F"/>
<path d="M483.503 535.148C482.82 542.763 476.096 548.383 468.485 547.7C460.873 547.017 455.257 540.29 455.94 532.675C456.623 525.06 463.347 519.441 470.959 520.124C478.57 520.806 484.187 527.533 483.503 535.148Z" fill="#F7898F"/>
<path d="M440.629 253.768C440.849 251.311 443.018 249.499 445.474 249.719L546.836 258.813C549.291 259.033 551.103 261.203 550.883 263.659C550.662 266.116 548.493 267.928 546.038 267.708L444.676 258.614C442.22 258.394 440.409 256.224 440.629 253.768Z" fill="#F7898F"/>
<path d="M440.629 253.768C440.849 251.311 443.018 249.499 445.474 249.719L546.836 258.813C549.291 259.033 551.103 261.203 550.883 263.659C550.662 266.116 548.493 267.928 546.038 267.708L444.676 258.614C442.22 258.394 440.409 256.224 440.629 253.768Z" fill="#F7898F"/>
<path d="M440.629 253.768C440.849 251.311 443.018 249.499 445.474 249.719L546.836 258.813C549.291 259.033 551.103 261.203 550.883 263.659C550.662 266.116 548.493 267.928 546.038 267.708L444.676 258.614C442.22 258.394 440.409 256.224 440.629 253.768Z" fill="#F7898F"/>
<path d="M439.272 268.89C439.493 266.434 441.662 264.621 444.117 264.841L529.475 272.499C531.93 272.72 533.742 274.889 533.521 277.346C533.301 279.802 531.132 281.615 528.677 281.395L443.319 273.737C440.864 273.517 439.052 271.347 439.272 268.89Z" fill="#E7DADA"/>
<path d="M406.188 527.763C406.408 525.307 408.577 523.494 411.033 523.714L434.15 525.788C436.606 526.009 438.417 528.179 438.197 530.635C437.977 533.092 435.808 534.904 433.352 534.684L410.235 532.61C407.779 532.39 405.967 530.22 406.188 527.763Z" fill="#E7DADA"/>
<path d="M501.326 536.299C501.547 533.842 503.716 532.03 506.171 532.25L538.18 535.122C540.636 535.342 542.447 537.512 542.227 539.968C542.007 542.425 539.837 544.237 537.382 544.017L505.373 541.145C502.918 540.925 501.106 538.755 501.326 536.299Z" fill="#E7DADA"/>
<path d="M371.784 551.578C372.005 549.122 374.174 547.309 376.629 547.529L925.231 596.748C927.686 596.968 929.498 599.138 929.278 601.594C929.057 604.051 926.888 605.864 924.433 605.643L375.831 556.425C373.376 556.205 371.564 554.035 371.784 551.578Z" fill="#E7DADA"/>
<path d="M370.268 568.48C370.488 566.023 372.658 564.211 375.113 564.431L779.673 600.726C782.129 600.947 783.94 603.117 783.72 605.573C783.5 608.03 781.331 609.842 778.875 609.622L374.315 573.327C371.859 573.106 370.048 570.936 370.268 568.48Z" fill="#E7DADA"/>
<path d="M572.222 265.574C572.443 263.117 574.612 261.305 577.067 261.525L662.425 269.183C664.88 269.403 666.692 271.573 666.472 274.029C666.251 276.486 664.082 278.299 661.627 278.078L576.269 270.42C573.814 270.2 572.002 268.03 572.222 265.574Z" fill="#E7DADA"/>
<path d="M1006.3 312.587C1006.52 310.131 1008.68 308.318 1011.14 308.539L1039.59 311.091C1042.05 311.311 1043.86 313.481 1043.64 315.938C1043.42 318.394 1041.25 320.207 1038.79 319.987L1010.34 317.434C1007.89 317.214 1006.08 315.044 1006.3 312.587Z" fill="#E7DADA"/>
<path d="M381.454 234.004L380.458 233.915L380.368 234.911L377.441 267.543L355.842 508.286L349.004 584.507L348.915 585.503L349.911 585.592L1021.21 645.819L1022.21 645.908L1022.3 644.912L1029.14 568.691L1050.74 327.948L1053.66 295.316L1053.75 294.32L1052.76 294.231L381.454 234.004Z" stroke="#F3E5E5" stroke-width="2"/>
</g>
<rect x="51" y="446.933" width="291.462" height="10" rx="5" transform="rotate(-4.71 51 446.933)" fill="#E7DADA"/>
<rect x="33" y="466.933" width="291.462" height="10" rx="5" transform="rotate(-4.71 33 466.933)" fill="#E7DADA"/>
<rect x="317.542" y="595.87" width="173.565" height="10" rx="5" transform="rotate(-84.87 317.542 595.87)" fill="#E7DADA"/>
<rect x="299.542" y="615.87" width="173.565" height="10" rx="5" transform="rotate(-84.87 299.542 615.87)" fill="#E7DADA"/>
<rect x="767.544" y="231.865" width="291.462" height="10" rx="5" transform="rotate(4.71 767.544 231.865)" fill="#E7DADA"/>
<rect x="785.544" y="211.865" width="291.462" height="10" rx="5" transform="rotate(4.71 785.544 211.865)" fill="#E7DADA"/>
<rect x="767.519" y="241.764" width="173.565" height="10" rx="5" transform="rotate(-95.13 767.519 241.764)" fill="#E7DADA"/>
<rect x="785.519" y="222.764" width="173.565" height="10" rx="5" transform="rotate(-95.13 785.519 222.764)" fill="#E7DADA"/>
<g opacity="0.3">
<path d="M197.685 550.919L263.334 559.096M219.392 518.328L230.977 519.771M260.423 535.243L277.805 537.369L280.691 514.199L273.449 509.376M203.478 551.64L211.656 485.992C212.618 478.269 218.273 475.052 224.684 475.85L255.577 479.698C261.987 480.497 266.681 485.003 265.719 492.726L257.541 558.375L203.478 551.64ZM228.134 507.653L244.469 509.687C248.485 510.188 252.008 508.666 252.676 503.298L253.268 498.548C253.937 493.18 250.895 490.841 246.879 490.34L230.544 488.306C226.528 487.805 223.005 489.327 222.336 494.695L221.744 499.445C221.076 504.813 224.118 507.152 228.134 507.653Z" stroke="#EF1A2D" stroke-width="7" stroke-linecap="round" stroke-linejoin="round"/>
</g>
<g opacity="0.3">
<path d="M201.174 606.859L186.777 597.232M168.801 539.694L171.507 554.773C171.876 556.843 173.728 559.318 175.637 560.217L186.948 565.717C194.196 569.223 194.322 575.255 187.262 579.129L175.253 585.676C173.246 586.775 171.451 589.562 171.328 591.853L170.59 604.114C169.998 613.791 164.153 615.899 157.552 608.804L148.332 598.891C146.654 597.081 143.334 596.134 140.979 596.725L127.873 600.028C118.492 602.385 114.71 597.449 119.462 589.006L125.501 578.33C126.629 576.334 126.674 573.029 125.575 571.022L119.028 559.012C115.194 551.945 118.57 546.948 126.55 547.918L139.008 549.441C141.116 549.682 144.003 548.656 145.424 547.096L155.887 535.871C161.523 529.807 167.346 531.536 168.801 539.694Z" stroke="#EF1A2D" stroke-width="9" stroke-linecap="round" stroke-linejoin="round"/>
</g>
<g opacity="0.3">
<path d="M838.167 130.286L833.733 130.895M913.538 119.933L909.104 120.542M870.591 103.246L871.809 112.113M865.158 113.027L878.459 111.2M851.297 160.103L864.597 158.276M891.199 154.622L904.5 152.795M886.049 100.355L854.925 104.63C843.886 106.146 842.202 111.979 841.709 118.913L839.994 143.586L910.931 133.843L902.627 110.545C900.282 104.001 897.089 98.8385 886.049 100.355ZM925.125 171.736C926.325 176.856 922.773 181.906 917.452 182.637L909.117 183.782C904.329 184.44 903.384 182.491 902.194 180.08L900.942 177.542C899.201 174.077 898.068 171.748 891.684 172.625L868.984 175.743C862.6 176.619 862.046 179.496 861.394 182.974L860.873 185.756C860.378 188.398 859.993 190.529 855.205 191.187L846.869 192.332C841.549 193.062 836.767 189.157 836.542 183.903L835.316 156.561C835.023 149.825 835.56 144.195 847.176 142.6L903.749 134.83C915.365 133.234 917.4 138.511 918.934 145.076L925.125 171.736Z" stroke="#EF1A2D" stroke-width="8" stroke-linecap="round" stroke-linejoin="round"/>
</g>
<g opacity="0.3">
<path d="M934.43 87.3406C935.04 82.6601 930.88 78.2573 925.134 77.5086C919.387 76.7598 914.238 79.9496 913.628 84.6301M938.547 96.3391L936.57 96.0816C934.49 95.8106 932.409 96.3592 930.763 97.6256L925.744 101.441C923.455 103.179 920.152 102.748 918.385 100.482L914.511 95.508C913.245 93.8621 911.348 92.7952 909.293 92.5275L907.343 92.2734C903.027 91.711 899.993 87.7987 900.549 83.5342L904.245 55.1651C904.801 50.9006 908.736 47.8964 913.052 48.4588L944.255 52.5245C948.572 53.0869 951.606 56.9992 951.05 61.2636L947.354 89.6328C946.801 93.8712 942.863 96.9015 938.547 96.3391ZM932.795 65.9986C932.359 69.3447 929.293 71.7038 925.947 71.2678C922.601 70.8318 920.241 67.7658 920.677 64.4197C921.113 61.0736 924.179 58.7146 927.526 59.1506C930.872 59.5866 933.231 62.6525 932.795 65.9986Z" stroke="#EF1A2D" stroke-width="8" stroke-linecap="round" stroke-linejoin="round"/>
</g>
<g opacity="0.3">
<path d="M223.927 596.318L228.992 597.249L226.824 609.051C226.318 611.805 227.707 612.637 229.906 610.906L244.905 599.088C246.746 597.647 246.368 596.103 244.057 595.679L238.992 594.748L241.16 582.945C241.666 580.192 240.277 579.36 238.078 581.091L223.079 592.909C221.251 594.37 221.632 595.897 223.927 596.318Z" stroke="#EF1A2D" stroke-width="7" stroke-miterlimit="10" stroke-linecap="round" stroke-linejoin="round"/>
</g>
<g opacity="0.3">
<path d="M148.254 489.253L146.685 494.158L135.255 490.502C132.588 489.649 131.586 490.921 133.023 493.323L142.831 509.706C144.025 511.716 145.605 511.539 146.321 509.3L147.89 504.395L159.319 508.051C161.986 508.904 162.988 507.632 161.551 505.231L151.743 488.847C150.528 486.848 148.965 487.03 148.254 489.253Z" stroke="#EF1A2D" stroke-width="7" stroke-miterlimit="10" stroke-linecap="round" stroke-linejoin="round"/>
</g>
<g opacity="0.3">
<path d="M945.785 154.176L950.85 155.107L948.682 166.909C948.176 169.663 949.565 170.495 951.764 168.764L966.763 156.946C968.604 155.505 968.226 153.961 965.915 153.537L960.85 152.606L963.018 140.803C963.524 138.05 962.135 137.218 959.936 138.949L944.937 150.767C943.109 152.228 943.49 153.755 945.785 154.176Z" stroke="#EF1A2D" stroke-width="7" stroke-miterlimit="10" stroke-linecap="round" stroke-linejoin="round"/>
</g>
<g opacity="0.3">
<path d="M870.112 47.1108L868.543 52.016L857.113 48.36C854.446 47.5069 853.444 48.7788 854.881 51.1807L864.689 67.5644C865.883 69.5739 867.463 69.3966 868.179 67.1583L869.748 62.2532L881.177 65.9092C883.844 66.7622 884.846 65.4903 883.409 63.0885L873.601 46.7047C872.386 44.706 870.822 44.8884 870.112 47.1108Z" stroke="#EF1A2D" stroke-width="7" stroke-miterlimit="10" stroke-linecap="round" stroke-linejoin="round"/>
</g>
<g opacity="0.3">
<path d="M984.857 199.58C981.707 193.125 984.987 188.251 992.156 188.749L1003.72 189.543C1010.89 190.041 1013.47 195.327 1009.45 201.284L1002.96 210.888C998.943 216.845 993.082 216.433 989.932 209.978L984.857 199.58Z" stroke="#EF1A2D" stroke-width="7" stroke-miterlimit="10" stroke-linecap="round" stroke-linejoin="round"/>
</g>
<g opacity="0.3">
<path d="M994.732 112.14C994.27 104.973 999.157 101.71 1005.6 104.894L1015.99 110.021C1022.43 113.204 1022.81 119.075 1016.83 123.059L1007.18 129.478C1001.2 133.462 995.938 130.854 995.476 123.686L994.732 112.14Z" stroke="#EF1A2D" stroke-width="7" stroke-miterlimit="10" stroke-linecap="round" stroke-linejoin="round"/>
</g>
<g opacity="0.3">
<path d="M802.505 70.4049C803.371 63.2747 808.774 60.9676 814.52 65.2824L823.792 72.2351C829.538 76.55 828.83 82.3896 822.219 85.205L811.552 89.738C804.941 92.5534 800.246 89.0208 801.112 81.8906L802.505 70.4049Z" stroke="#EF1A2D" stroke-width="7" stroke-miterlimit="10" stroke-linecap="round" stroke-linejoin="round"/>
</g>
<g opacity="0.3">
<path d="M86.8126 502.036C88.9755 495.187 94.7114 493.914 99.5647 499.212L107.399 507.753C112.252 513.052 110.481 518.661 103.465 520.212L92.1462 522.704C85.1299 524.254 81.1655 519.918 83.3284 513.069L86.8126 502.036Z" stroke="#EF1A2D" stroke-width="7" stroke-miterlimit="10" stroke-linecap="round" stroke-linejoin="round"/>
</g>
<g opacity="0.3">
<path d="M265.654 574.16C269.041 567.826 274.913 567.63 278.708 573.732L284.837 583.568C288.632 589.67 285.858 594.858 278.676 595.09L267.093 595.456C259.911 595.689 256.812 590.697 260.199 584.363L265.654 574.16Z" stroke="#EF1A2D" stroke-width="7" stroke-miterlimit="10" stroke-linecap="round" stroke-linejoin="round"/>
</g>
<g opacity="0.3">
<path d="M28.4301 91.0033L15.6747 52.3379C13.9039 46.97 16.5856 44.6532 21.631 47.1956L35.5329 54.2005C37.6262 55.2552 40.2093 54.4031 41.2237 52.3231L50.8929 33.067C51.9477 30.9737 54.5307 30.1216 56.5837 31.1897L75.8531 40.8992C77.9464 41.954 80.5295 41.1018 81.5439 39.0218L88.5488 25.12C91.0911 20.0745 94.6249 20.3408 96.3958 25.7088L109.164 64.4145C113.159 76.5227 107.75 87.2577 95.6415 91.2521L55.281 104.567C44.1282 108.201 32.1049 102.143 28.4301 91.0033Z" stroke="#EF1A2D" stroke-width="8" stroke-linecap="round" stroke-linejoin="round"/>
</g>
<g opacity="0.3">
<path d="M74.8929 560.765C79.3876 555.163 85.1954 556.052 87.8026 562.748L92.0156 573.544C94.6227 580.24 90.9416 584.828 83.8397 583.735L72.3864 581.963C65.2846 580.869 63.1579 575.392 67.6526 569.79L74.8929 560.765Z" stroke="#EF1A2D" stroke-width="7" stroke-miterlimit="10" stroke-linecap="round" stroke-linejoin="round"/>
</g>
<g opacity="0.3">
<path d="M1005.65 678.498C1006.37 676.705 1005.51 674.665 1003.71 673.942C1001.92 673.218 999.882 674.084 999.158 675.876L1005.65 678.498ZM995.783 684.233C995.059 686.025 995.925 688.065 997.717 688.789C999.51 689.513 1001.55 688.647 1002.27 686.854L995.783 684.233ZM973.667 691.037L970.422 689.727L969.111 692.972L972.356 694.283L973.667 691.037ZM1013.46 707.109L1012.15 710.355L1015.4 711.665L1016.71 708.42L1013.46 707.109ZM970.998 686.185C969.206 685.461 967.166 686.327 966.442 688.12C965.718 689.912 966.584 691.952 968.377 692.676L970.998 686.185ZM1016.13 711.962C1017.92 712.686 1019.96 711.82 1020.69 710.027C1021.41 708.235 1020.54 706.195 1018.75 705.471L1016.13 711.962ZM983.616 647.151L981.378 649.842C982.433 650.719 983.903 650.899 985.138 650.303C986.373 649.706 987.146 648.444 987.115 647.072L983.616 647.151ZM977.864 639.274L974.575 640.471C974.596 640.528 974.619 640.585 974.643 640.642L977.864 639.274ZM994.234 617.652L996.688 620.148C997.529 619.321 997.897 618.125 997.667 616.968C997.437 615.811 996.639 614.848 995.545 614.406L994.234 617.652ZM985.808 635.077L989.053 636.387L985.808 635.077ZM1035.59 668.141L1033.12 665.654C1032.15 666.619 1031.83 668.065 1032.3 669.352C1032.78 670.638 1033.96 671.53 1035.33 671.631L1035.59 668.141ZM1045.2 666.467L1046.56 669.689C1046.62 669.665 1046.68 669.64 1046.73 669.613L1045.2 666.467ZM1048.43 639.541L1049.74 636.296C1048.65 635.854 1047.41 635.993 1046.44 636.666C1045.47 637.338 1044.9 638.454 1044.93 639.633L1048.43 639.541ZM1042.39 657.931L1045.64 659.241L1042.39 657.931ZM999.158 675.876L995.783 684.233L1002.27 686.854L1005.65 678.498L999.158 675.876ZM972.356 694.283L1012.15 710.355L1014.77 703.864L974.978 687.792L972.356 694.283ZM1016.71 708.42L1018.31 704.441L1011.82 701.819L1010.22 705.799L1016.71 708.42ZM1018.31 704.441C1020.8 698.271 1017.8 691.203 1011.63 688.712L1009.01 695.202C1011.6 696.246 1012.87 699.234 1011.82 701.819L1018.31 704.441ZM1011.63 688.712L987.758 679.068L985.136 685.559L1009.01 695.202L1011.63 688.712ZM987.758 679.068C981.588 676.577 974.521 679.578 972.029 685.747L978.519 688.369C979.563 685.784 982.551 684.515 985.136 685.559L987.758 679.068ZM972.029 685.747L970.422 689.727L976.912 692.348L978.519 688.369L972.029 685.747ZM968.377 692.676L1016.13 711.962L1018.75 705.471L970.998 686.185L968.377 692.676ZM1003.92 671.711C990.313 666.215 983.754 650.769 989.25 637.161L982.759 634.54C975.816 651.732 984.107 671.258 1001.3 678.201L1003.92 671.711ZM989.25 637.161L994.072 625.223L987.581 622.601L982.759 634.54L989.25 637.161ZM994.072 625.223C996.9 618.221 1004.86 614.841 1011.86 617.669L1014.48 611.178C1003.9 606.902 991.857 612.015 987.581 622.601L994.072 625.223ZM1011.86 617.669L1035.74 627.312L1038.36 620.821L1014.48 611.178L1011.86 617.669ZM1035.74 627.312C1042.74 630.14 1046.12 638.1 1043.29 645.102L1049.78 647.723C1054.06 637.137 1048.95 625.097 1038.36 620.821L1035.74 627.312ZM1043.29 645.102L1038.47 657.04L1044.96 659.662L1049.78 647.723L1043.29 645.102ZM1038.47 657.04C1032.97 670.648 1017.53 677.207 1003.92 671.711L1001.3 678.201C1018.49 685.145 1038.02 676.854 1044.96 659.662L1038.47 657.04ZM985.853 644.459C983.744 642.706 982.134 640.375 981.086 637.906L974.643 640.642C976.061 643.983 978.291 647.275 981.378 649.842L985.853 644.459ZM981.153 638.077C979.392 633.235 979.081 628.417 980.927 623.848L974.436 621.227C971.781 627.8 972.389 634.461 974.575 640.471L981.153 638.077ZM980.927 623.848C982.453 620.069 986.558 618.326 990.337 619.852L992.958 613.362C985.595 610.388 977.41 613.863 974.436 621.227L980.927 623.848ZM990.337 619.852L992.923 620.897L995.545 614.406L992.958 613.362L990.337 619.852ZM991.781 615.156C989.874 617.029 988.4 619.312 987.384 621.828L993.875 624.449C994.563 622.746 995.524 621.292 996.688 620.148L991.781 615.156ZM987.384 621.828L982.563 633.766L989.053 636.387L993.875 624.449L987.384 621.828ZM982.563 633.766C980.769 638.208 980.017 642.761 980.117 647.229L987.115 647.072C987.035 643.507 987.633 639.904 989.053 636.387L982.563 633.766ZM1035.33 671.631C1039.33 671.929 1043.22 671.108 1046.56 669.689L1043.83 663.246C1041.36 664.294 1038.58 664.854 1035.85 664.65L1035.33 671.631ZM1046.73 669.613C1052.48 666.807 1057.54 662.436 1060.2 655.863L1053.7 653.242C1051.86 657.811 1048.29 661.062 1043.66 663.322L1046.73 669.613ZM1060.2 655.863C1063.17 648.5 1059.69 640.315 1052.33 637.341L1049.71 643.831C1053.49 645.358 1055.23 649.463 1053.7 653.242L1060.2 655.863ZM1052.33 637.341L1049.74 636.296L1047.12 642.787L1049.71 643.831L1052.33 637.341ZM1044.93 639.633C1044.98 641.265 1044.66 642.979 1043.97 644.682L1050.46 647.303C1051.48 644.788 1052 642.122 1051.93 639.449L1044.93 639.633ZM1043.97 644.682L1039.15 656.62L1045.64 659.241L1050.46 647.303L1043.97 644.682ZM1039.15 656.62C1037.73 660.136 1035.66 663.144 1033.12 665.654L1038.05 670.627C1041.22 667.482 1043.85 663.684 1045.64 659.241L1039.15 656.62Z" fill="#EF1A2D"/>
</g>
<defs>
<filter id="filter0_d_99_105" x="56.0068" y="16.0034" width="712.531" height="415.149" filterUnits="userSpaceOnUse" color-interpolation-filters="sRGB">
<feFlood flood-opacity="0" result="BackgroundImageFix"/>
<feColorMatrix in="SourceAlpha" type="matrix" values="0 0 0 0 0 0 0 0 0 0 0 0 0 0 0 0 0 0 127 0" result="hardAlpha"/>
<feOffset dy="4"/>
<feGaussianBlur stdDeviation="2"/>
<feComposite in2="hardAlpha" operator="out"/>
<feColorMatrix type="matrix" values="0 0 0 0 0 0 0 0 0 0 0 0 0 0 0 0 0 0 0.25 0"/>
<feBlend mode="normal" in2="BackgroundImageFix" result="effect1_dropShadow_99_105"/>
<feBlend mode="normal" in="SourceGraphic" in2="effect1_dropShadow_99_105" result="shape"/>
</filter>
<filter id="filter1_d_99_105" x="344.008" y="234.004" width="714.652" height="419.815" filterUnits="userSpaceOnUse" color-interpolation-filters="sRGB">
<feFlood flood-opacity="0" result="BackgroundImageFix"/>
<feColorMatrix in="SourceAlpha" type="matrix" values="0 0 0 0 0 0 0 0 0 0 0 0 0 0 0 0 0 0 127 0" result="hardAlpha"/>
<feOffset dy="4"/>
<feGaussianBlur stdDeviation="2"/>
<feComposite in2="hardAlpha" operator="out"/>
<feColorMatrix type="matrix" values="0 0 0 0 0 0 0 0 0 0 0 0 0 0 0 0 0 0 0.25 0"/>
<feBlend mode="normal" in2="BackgroundImageFix" result="effect1_dropShadow_99_105"/>
<feBlend mode="normal" in="SourceGraphic" in2="effect1_dropShadow_99_105" result="shape"/>
</filter>
</defs>
</svg>
