<svg width="1876" height="1080" viewBox="0 0 1876 1080" fill="none" xmlns="http://www.w3.org/2000/svg">
<ellipse cx="414.921" cy="571.19" rx="396.898" ry="108.045" transform="rotate(2.09668 414.921 571.19)" fill="#F3E5E5"/>
<ellipse cx="414.632" cy="557.94" rx="396.898" ry="108.045" transform="rotate(2.09668 414.632 557.94)" fill="#E7DADA"/>
<ellipse cx="1466.43" cy="927.098" rx="396.898" ry="108.045" transform="rotate(-5.06594 1466.43 927.098)" fill="#F3E5E5"/>
<ellipse cx="1466.14" cy="913.849" rx="396.898" ry="108.045" transform="rotate(-5.06594 1466.14 913.849)" fill="#E7DADA"/>
<path d="M1113.58 883.033L895.589 916.01L927.215 765.758L1110.68 583.168L1096.41 475.256L1172.45 357.652L995.61 313.053L785.805 279.799L601.127 336.71L476.996 443.69" stroke="#EF1A2D" stroke-width="7" stroke-linecap="round" stroke-dasharray="18 18"/>
<path d="M1112.28 873.13L894.293 906.107L925.919 755.855L1109.38 573.265L1095.11 465.354L1171.15 347.749L994.314 303.151L784.509 269.896L599.83 326.808L475.699 433.788" stroke="#F7898F" stroke-width="7" stroke-linecap="round" stroke-dasharray="18 18"/>
<path d="M242.956 300.523C276.717 303.344 306.373 278.262 309.193 244.501C312.014 210.74 286.932 181.084 253.171 178.263C219.41 175.443 189.754 200.525 186.934 234.286C184.113 268.047 209.195 297.702 242.956 300.523Z" stroke="#EF1A2D" stroke-width="20"/>
<path d="M86.8544 190.016C139.629 23.5666 390.989 44.765 415.215 217.648C429.431 319.062 360.478 398.139 301.852 445.722C259.294 480.442 196.989 475.236 160.587 433.919C110.865 377.284 56.0067 287.666 86.8544 190.016Z" stroke="#EF1A2D" stroke-width="20"/>
<path d="M1611.29 543.472C1644.88 539.03 1668.5 508.202 1664.06 474.616C1659.62 441.03 1628.79 417.403 1595.2 421.845C1561.62 426.287 1537.99 457.115 1542.43 490.701C1546.87 524.287 1577.7 547.913 1611.29 543.472Z" stroke="#EF1A2D" stroke-width="20"/>
<path d="M1435.22 468.785C1451.29 294.911 1701.39 262.034 1761.92 425.777C1797.43 521.83 1746.92 613.788 1699.79 672.776C1665.61 715.771 1603.63 723.968 1559.25 691.362C1498.6 646.629 1425.9 570.766 1435.22 468.785Z" stroke="#EF1A2D" stroke-width="20"/>
<path d="M998.413 420.527L973.968 481.661C968.128 496.171 947.242 494.759 943.515 479.57L939.066 461.898C937.864 457.034 934.427 452.912 929.808 451.038L912.98 443.842C898.656 437.765 900.58 416.752 915.818 413.448L980.057 398.903C992.658 396.142 1003.29 408.618 998.413 420.527Z" stroke="#EF1A2D" stroke-width="20" stroke-linecap="round" stroke-linejoin="round"/>
<path d="M920.424 522.657L970.304 526.629C1011.87 529.939 1029.82 514.637 1033.13 473.07L1037.1 423.19C1040.41 381.623 1025.11 363.672 983.544 360.362L933.664 356.39C892.097 353.08 874.147 368.383 870.836 409.95L866.864 459.83C863.554 501.396 878.857 519.347 920.424 522.657Z" stroke="#EF1A2D" stroke-width="20" stroke-linecap="round" stroke-linejoin="round"/>
<path d="M579.919 412.514L571.431 411.941M724.204 422.248L715.717 421.676M650.681 374.658L649.536 391.633M636.805 390.774L662.267 392.492M592.885 473.071L618.347 474.789M669.272 478.224L694.734 479.942M680.569 375.225L620.987 371.205C599.854 369.779 594.476 379.989 590.889 392.706L578.201 437.976L713.999 447.138L707.506 400.574C705.661 387.49 701.703 376.651 680.569 375.225ZM725.839 523.136C726.102 533.129 717.546 541.163 707.361 540.476L691.405 539.4C682.238 538.781 681.229 534.791 679.942 529.845L678.588 524.638C676.682 517.518 675.469 512.747 663.247 511.922L619.791 508.99C607.57 508.166 605.432 513.308 602.881 519.53L600.84 524.508C598.901 529.237 597.364 533.055 588.198 532.437L572.242 531.36C562.057 530.673 554.657 521.563 556.261 511.696L564.501 460.328C566.548 447.677 569.713 437.404 591.95 438.904L700.25 446.21C722.487 447.71 724.244 458.316 724.573 471.127L725.839 523.136Z" stroke="#EF1A2D" stroke-width="20" stroke-linecap="round" stroke-linejoin="round"/>
<path d="M1139.94 527.817L1251.25 577.347M1195.63 482.003L1215.27 490.743M1258.88 533.759L1288.37 546.804L1305.85 507.521L1295.67 495.147M1149.77 532.187L1199.3 420.885C1205.12 407.79 1216.81 405.147 1227.68 409.984L1280.06 433.292C1290.92 438.128 1296.78 448.58 1290.96 461.674L1241.43 572.977L1149.77 532.187ZM1216.74 467.868L1244.44 480.192C1251.25 483.222 1258.27 482.425 1262.32 473.325L1265.9 465.271C1269.95 456.171 1265.84 450.421 1259.04 447.391L1231.34 435.066C1224.53 432.036 1217.51 432.833 1213.46 441.934L1209.88 449.987C1205.83 459.088 1209.94 464.838 1216.74 467.868Z" stroke="#EF1A2D" stroke-width="20" stroke-linecap="round" stroke-linejoin="round"/>
<path d="M845.257 638.874L785.193 654.554C776.422 656.821 767.595 665.821 765.497 674.634L750.981 734.99C746.609 753.224 757.874 764.334 776.081 759.61L836.146 743.991C844.856 741.723 853.744 732.663 855.842 723.91L870.358 663.494C874.73 645.26 863.404 634.151 845.257 638.874Z" stroke="#EF1A2D" stroke-width="20" stroke-linecap="round" stroke-linejoin="round"/>
<path d="M810.874 720.464C822.595 720.351 832.005 710.757 831.891 699.037C831.778 687.316 822.185 677.907 810.464 678.02C798.744 678.133 789.334 687.726 789.447 699.447C789.561 711.167 799.154 720.577 810.874 720.464Z" stroke="#EF1A2D" stroke-width="20" stroke-linecap="round" stroke-linejoin="round"/>
<path d="M1429.4 792.678C1443.13 793.7 1457.85 790.04 1467.71 782.218C1480.83 771.856 1479.5 756.918 1464.75 749.044C1453.56 743.1 1438.23 742.122 1424.9 745.658M1330.86 801.472C1317.52 804.911 1302.39 803.915 1291.3 797.963C1276.55 790.089 1275.22 775.15 1288.34 764.789C1298.3 756.958 1313.21 753.28 1326.96 754.4M1433.27 721.152C1432.67 721.108 1431.98 721.17 1431.4 721.319C1417.71 722.052 1405.86 712.061 1404.65 698.481C1403.41 684.609 1413.78 672.44 1427.92 671.178C1442.05 669.917 1454.42 680.155 1455.65 693.929C1456.76 707.518 1446.87 719.45 1433.27 721.152ZM1314.38 731.763C1314.96 731.613 1315.65 731.551 1316.26 731.596C1329.85 729.893 1339.74 717.962 1338.53 704.382C1337.29 690.51 1324.93 680.37 1310.8 681.631C1296.67 682.892 1286.31 695.159 1287.54 708.933C1288.85 722.505 1300.7 732.495 1314.38 731.763ZM1380.44 798.904C1379.84 798.86 1379.15 798.922 1378.56 799.072C1364.88 799.804 1353.03 789.813 1351.82 776.233C1350.58 762.362 1360.95 750.192 1375.08 748.931C1389.22 747.67 1401.59 757.907 1402.82 771.682C1403.93 785.271 1394.05 797.299 1380.44 798.904ZM1354.41 832.027C1341.29 842.389 1342.62 857.327 1357.37 865.201C1374.11 874.169 1400 871.858 1414.89 860.068C1428.01 849.706 1426.68 834.767 1411.93 826.893C1395.3 818.013 1369.3 820.333 1354.41 832.027Z" stroke="#EF1A2D" stroke-width="20" stroke-linecap="round" stroke-linejoin="round"/>
<path d="M1708.46 683.459L1725.76 803.493M1713.19 695.03L1764.83 709.029C1785.85 714.577 1787.93 728.981 1770.7 741.265L1724.44 773.052" stroke="#EF1A2D" stroke-width="20" stroke-miterlimit="10" stroke-linecap="round" stroke-linejoin="round"/>
<path d="M517.486 247.631L529.508 236.379L555.726 264.39C561.844 270.926 566.622 268.935 566.352 259.991L564.487 198.968C564.281 191.497 559.596 189.532 554.11 194.666L542.089 205.918L515.871 177.907C509.753 171.371 504.975 173.362 505.245 182.306L507.11 243.329C507.391 250.803 512.04 252.729 517.486 247.631Z" stroke="#EF1A2D" stroke-width="20" stroke-miterlimit="10" stroke-linecap="round" stroke-linejoin="round"/>
<path d="M242.956 296.522C276.717 299.342 306.373 274.26 309.193 240.499C312.014 206.738 286.932 177.083 253.171 174.262C219.41 171.441 189.754 196.523 186.934 230.284C184.113 264.045 209.195 293.701 242.956 296.522Z" stroke="#F7898F" stroke-width="20"/>
<path d="M86.8544 186.015C139.629 19.5652 390.989 40.7635 415.215 213.646C429.431 315.061 360.478 394.138 301.852 441.72C259.294 476.44 196.989 471.235 160.587 429.918C110.865 373.282 56.0067 283.664 86.8544 186.015Z" stroke="#F7898F" stroke-width="20"/>
<path d="M1611.29 539.47C1644.88 535.028 1668.5 504.201 1664.06 470.614C1659.62 437.028 1628.79 413.402 1595.2 417.844C1561.62 422.285 1537.99 453.113 1542.43 486.699C1546.87 520.286 1577.7 543.912 1611.29 539.47Z" stroke="#F7898F" stroke-width="20"/>
<path d="M1435.22 464.784C1451.29 290.91 1701.39 258.032 1761.92 421.776C1797.43 517.828 1746.92 609.787 1699.79 668.775C1665.61 711.769 1603.63 719.966 1559.25 687.36C1498.6 642.627 1425.9 566.765 1435.22 464.784Z" stroke="#F7898F" stroke-width="20"/>
<path d="M998.413 416.526L973.968 477.659C968.128 492.169 947.242 490.757 943.515 475.569L939.066 457.897C937.864 453.032 934.427 448.91 929.808 447.037L912.98 439.84C898.656 433.764 900.58 412.751 915.818 409.447L980.057 394.902C992.658 392.141 1003.29 404.616 998.413 416.526Z" stroke="#F7898F" stroke-width="20" stroke-linecap="round" stroke-linejoin="round"/>
<path d="M920.424 518.656L970.304 522.628C1011.87 525.938 1029.82 510.635 1033.13 469.069L1037.1 419.188C1040.41 377.622 1025.11 359.671 983.544 356.361L933.664 352.389C892.097 349.079 874.147 364.381 870.836 405.948L866.864 455.828C863.554 497.395 878.857 515.346 920.424 518.656Z" stroke="#F7898F" stroke-width="20" stroke-linecap="round" stroke-linejoin="round"/>
<path d="M579.919 408.513L571.431 407.94M724.204 418.247L715.717 417.674M650.681 370.656L649.536 387.631M636.805 386.772L662.267 388.49M592.885 469.07L618.347 470.787M669.272 474.223L694.734 475.941M680.569 371.223L620.987 367.204C599.854 365.778 594.476 375.987 590.889 388.705L578.201 433.975L713.999 443.136L707.506 396.573C705.661 383.488 701.703 372.649 680.569 371.223ZM725.839 519.135C726.102 529.128 717.546 537.162 707.361 536.475L691.405 535.398C682.238 534.78 681.229 530.79 679.942 525.843L678.588 520.636C676.682 513.516 675.469 508.745 663.247 507.921L619.791 504.989C607.57 504.164 605.432 509.306 602.881 515.529L600.84 520.507C598.901 525.236 597.364 529.054 588.198 528.436L572.242 527.359C562.057 526.672 554.657 517.561 556.261 507.694L564.501 456.327C566.548 443.676 569.713 433.402 591.95 434.902L700.25 442.209C722.487 443.709 724.244 454.315 724.573 467.126L725.839 519.135Z" stroke="#F7898F" stroke-width="20" stroke-linecap="round" stroke-linejoin="round"/>
<path d="M1139.94 523.815L1251.25 573.346M1195.63 478.001L1215.27 486.742M1258.88 529.757L1288.37 542.803L1305.85 503.52L1295.67 491.145M1149.77 528.186L1199.3 416.883C1205.12 403.789 1216.81 401.146 1227.68 405.982L1280.06 429.291C1290.92 434.127 1296.78 444.578 1290.96 457.673L1241.43 568.975L1149.77 528.186ZM1216.74 463.866L1244.44 476.191C1251.25 479.221 1258.27 478.424 1262.32 469.323L1265.9 461.27C1269.95 452.169 1265.84 446.419 1259.04 443.389L1231.34 431.065C1224.53 428.035 1217.51 428.832 1213.46 437.932L1209.88 445.986C1205.83 455.086 1209.94 460.836 1216.74 463.866Z" stroke="#F7898F" stroke-width="20" stroke-linecap="round" stroke-linejoin="round"/>
<path d="M845.257 634.873L785.193 650.552C776.422 652.82 767.595 661.819 765.497 670.632L750.981 730.988C746.609 749.222 757.874 760.332 776.081 755.608L836.146 739.989C844.856 737.722 853.744 728.661 855.842 719.909L870.358 659.492C874.73 641.258 863.404 630.149 845.257 634.873Z" stroke="#F7898F" stroke-width="20" stroke-linecap="round" stroke-linejoin="round"/>
<path d="M810.874 716.462C822.595 716.349 832.005 706.756 831.891 695.035C831.778 683.315 822.185 673.905 810.464 674.018C798.744 674.132 789.334 683.725 789.447 695.445C789.561 707.166 799.154 716.576 810.874 716.462Z" stroke="#F7898F" stroke-width="20" stroke-linecap="round" stroke-linejoin="round"/>
<path d="M1429.4 788.676C1443.13 789.699 1457.85 786.039 1467.71 778.217C1480.83 767.855 1479.5 752.917 1464.75 745.042C1453.56 739.099 1438.23 738.12 1424.9 741.657M1330.86 797.47C1317.52 800.91 1302.39 799.914 1291.3 793.962C1276.55 786.087 1275.22 771.149 1288.34 760.787C1298.3 752.956 1313.21 749.278 1326.96 750.398M1433.27 717.15C1432.67 717.106 1431.98 717.168 1431.4 717.318C1417.71 718.05 1405.86 708.059 1404.65 694.479C1403.41 680.608 1413.78 668.438 1427.92 667.177C1442.05 665.916 1454.42 676.153 1455.65 689.928C1456.76 703.517 1446.87 715.448 1433.27 717.15ZM1314.38 727.762C1314.96 727.612 1315.65 727.55 1316.26 727.594C1329.85 725.892 1339.74 713.96 1338.53 700.38C1337.29 686.509 1324.93 676.368 1310.8 677.629C1296.67 678.891 1286.31 691.157 1287.54 704.932C1288.85 718.503 1300.7 728.494 1314.38 727.762ZM1380.44 794.903C1379.84 794.859 1379.15 794.921 1378.56 795.071C1364.88 795.803 1353.03 785.812 1351.82 772.232C1350.58 758.36 1360.95 746.191 1375.08 744.93C1389.22 743.668 1401.59 753.906 1402.82 767.68C1403.93 781.269 1394.05 793.298 1380.44 794.903ZM1354.41 828.025C1341.29 838.387 1342.62 853.325 1357.37 861.2C1374.11 870.168 1400 867.857 1414.89 856.066C1428.01 845.704 1426.68 830.766 1411.93 822.892C1395.3 814.012 1369.3 816.332 1354.41 828.025Z" stroke="#F7898F" stroke-width="20" stroke-linecap="round" stroke-linejoin="round"/>
<path d="M1708.46 679.457L1725.76 799.491M1713.19 691.028L1764.83 705.028C1785.85 710.576 1787.93 724.98 1770.7 737.264L1724.44 769.05" stroke="#F7898F" stroke-width="20" stroke-miterlimit="10" stroke-linecap="round" stroke-linejoin="round"/>
<path d="M517.486 243.63L529.508 232.378L555.726 260.389C561.844 266.925 566.622 264.934 566.352 255.99L564.487 194.967C564.281 187.495 559.596 185.531 554.11 190.665L542.089 201.917L515.871 173.906C509.753 167.37 504.975 169.361 505.245 178.305L507.11 239.328C507.391 246.802 512.04 248.728 517.486 243.63Z" stroke="#F7898F" stroke-width="20" stroke-miterlimit="10" stroke-linecap="round" stroke-linejoin="round"/>
</svg>
