<svg width="54" height="54" viewBox="0 0 54 54" fill="none" xmlns="http://www.w3.org/2000/svg">
<path d="M27 49.5C32.85 49.5 38.16 47.2725 42.165 43.605C41.94 41.49 40.59 39.42 38.1825 37.8C32.0625 33.705 21.9825 33.705 15.8175 37.8C13.41 39.42 12.06 41.49 11.835 43.605C15.84 47.2725 21.15 49.5 27 49.5ZM27 49.5C39.4264 49.5 49.5 39.4264 49.5 27C49.5 14.5736 39.4264 4.5 27 4.5C14.5736 4.5 4.5 14.5736 4.5 27C4.5 39.4264 14.5736 49.5 27 49.5ZM27.27 28.755C27.1125 28.7325 26.91 28.7325 26.73 28.755C22.77 28.62 19.62 25.38 19.62 21.3975C19.62 17.325 22.905 14.0175 27 14.0175C31.0725 14.0175 34.38 17.325 34.38 21.3975C34.3575 25.38 31.23 28.62 27.27 28.755Z" stroke="#FFF0F0" stroke-width="5" stroke-linecap="round" stroke-linejoin="round"/>
</svg>
